<svg width="120" height="35" viewBox="0 0 120 35" fill="none" xmlns="http://www.w3.org/2000/svg">
<path opacity="0.7" d="M105.635 23.1438C105.674 22.8891 105.546 22.5265 105.507 22.2718C105.488 22.1542 105.409 21.9386 105.439 21.8211C105.468 21.6937 105.586 21.7035 105.625 21.5957C105.644 21.5369 105.674 21.5173 105.733 21.5369C105.782 21.5565 105.811 21.5467 105.811 21.5173C105.811 21.4879 105.791 21.4781 105.772 21.4977C105.752 21.5075 105.733 21.4879 105.733 21.4389C105.733 21.3899 105.752 21.3507 105.782 21.3507C105.86 21.3507 105.831 21.2723 105.742 21.2429C105.635 21.2038 105.605 21.2332 105.595 21.3997C105.586 21.6153 105.507 21.5957 105.497 21.3801C105.488 21.1254 105.448 21.0274 105.409 21.1646C105.39 21.2234 105.36 21.2723 105.331 21.2821C105.292 21.2919 105.282 21.2038 105.292 20.9588C105.301 20.7726 105.282 20.6061 105.262 20.5963C105.194 20.5473 105.223 20.3709 105.321 20.2729C105.37 20.2239 105.419 20.2043 105.439 20.2141C105.448 20.2337 105.439 20.2533 105.419 20.2729C105.39 20.2925 105.38 20.3611 105.399 20.4787C105.419 20.5767 105.409 20.6844 105.39 20.7138C105.331 20.7922 105.341 20.8314 105.419 20.8314C105.458 20.8314 105.478 20.8118 105.458 20.7824C105.439 20.753 105.448 20.7432 105.488 20.753C105.517 20.7628 105.546 20.8216 105.546 20.8706C105.546 20.9294 105.576 20.9784 105.605 20.9882C105.635 20.998 105.684 21.047 105.723 21.0862C105.811 21.2038 105.86 21.1842 105.84 21.0568C105.831 20.998 105.811 20.8608 105.801 20.753C105.791 20.6452 105.752 20.4395 105.723 20.2827C105.674 20.0573 105.674 19.979 105.723 19.8614C105.782 19.6948 105.782 19.4792 105.713 19.4792C105.693 19.4792 105.674 19.5576 105.674 19.6556L105.684 19.832L105.605 19.6066C105.566 19.4792 105.527 19.3519 105.537 19.3127C105.537 19.2735 105.488 19.0677 105.429 18.8521C105.331 18.4896 105.311 18.3622 105.35 18.1172C105.36 18.0585 105.341 18.0095 105.311 17.9997C105.282 17.9899 105.252 18.0193 105.252 18.0977L105.243 18.2152L105.203 18.0781C105.164 17.9507 105.174 17.9311 105.321 17.7939C105.409 17.7155 105.478 17.6665 105.478 17.6959C105.478 17.7253 105.448 17.7743 105.409 17.8135C105.321 17.8919 105.35 17.9311 105.468 17.8723C105.546 17.8331 105.556 17.8527 105.595 18.0291C105.654 18.3034 105.703 18.4308 105.742 18.4112C105.762 18.4014 105.772 18.5092 105.772 18.6562C105.772 18.8325 105.791 18.9697 105.86 19.0873C105.909 19.1853 105.958 19.3323 105.968 19.4204C105.978 19.5086 106.007 19.5968 106.036 19.6066C106.095 19.6458 106.056 19.3323 105.968 19.1363C105.929 19.0285 105.899 18.8913 105.909 18.7639C105.919 18.6562 105.909 18.5386 105.88 18.5092C105.84 18.4602 105.85 18.1564 105.899 18.1172C105.909 18.1075 105.938 18.176 105.968 18.274C105.987 18.372 106.027 18.4994 106.056 18.5484C106.085 18.5974 106.105 18.715 106.105 18.8031C106.105 18.8913 106.125 19.0187 106.134 19.0775C106.144 19.1363 106.164 19.2539 106.174 19.3323C106.183 19.4106 106.203 19.5478 106.213 19.6262C106.232 19.734 106.223 19.7732 106.164 19.8026C106.125 19.8222 106.105 19.8614 106.115 19.881C106.125 19.9006 106.154 19.9104 106.183 19.9006C106.203 19.8908 106.223 19.9006 106.223 19.93C106.223 19.9594 106.252 19.9692 106.281 19.9594C106.321 19.9398 106.34 19.9594 106.34 20.0279C106.34 20.0769 106.37 20.1651 106.419 20.2239C106.566 20.4199 106.566 20.2337 106.428 19.7046C106.33 19.3127 106.311 19.1951 106.35 19.1265C106.389 19.0481 106.399 19.0481 106.399 19.1069C106.399 19.2245 106.497 19.3029 106.605 19.2833C106.673 19.2637 106.693 19.2833 106.693 19.3421C106.693 19.391 106.664 19.4498 106.624 19.4792C106.556 19.5282 106.556 19.6654 106.615 20.0475L106.634 20.1749L106.713 20.0769L106.791 19.979V20.0965C106.791 20.1651 106.811 20.2141 106.84 20.2141C106.869 20.2141 106.879 20.2533 106.86 20.3023C106.83 20.3905 106.889 20.4199 106.938 20.3415C106.958 20.3121 106.977 20.1945 106.987 20.0769C107.016 19.8418 107.065 19.7536 107.144 19.832C107.183 19.8712 107.183 19.881 107.134 19.881C107.095 19.881 107.085 19.8908 107.124 19.9398C107.163 19.9985 107.114 20.2533 107.006 20.5375C106.987 20.5963 106.987 20.6061 107.016 20.5767C107.036 20.5571 107.095 20.4297 107.144 20.2925C107.212 20.0965 107.232 20.0573 107.281 20.0965C107.33 20.1357 107.34 20.1259 107.34 20.0671C107.34 20.0181 107.389 19.9496 107.438 19.9006C107.487 19.8516 107.594 19.734 107.673 19.636C108.222 18.9305 108.78 18.4014 109.672 17.7743C109.917 17.5979 110.142 17.4412 110.172 17.4216C110.289 17.3236 110.887 16.9316 111.083 16.8239C111.201 16.7553 111.338 16.6671 111.397 16.6181C111.446 16.5691 111.504 16.5299 111.534 16.5299C111.553 16.5299 111.602 16.4907 111.651 16.4515C111.69 16.4025 111.749 16.3731 111.769 16.3731C111.808 16.3731 112.161 16.1282 112.347 15.9812C112.396 15.942 112.553 15.8244 112.69 15.7264C112.827 15.6284 112.984 15.5109 113.033 15.4717C113.082 15.4325 113.239 15.2953 113.396 15.1581C113.543 15.0307 113.709 14.8936 113.758 14.8642C113.993 14.7172 114.415 14.3547 114.885 13.9137C115.169 13.6492 115.404 13.4238 115.414 13.4238C115.434 13.4238 116.208 12.6693 116.208 12.6399C116.208 12.6203 116.306 12.5125 116.433 12.4048C116.668 12.1794 116.786 12.0422 117.276 11.3367C117.59 10.886 117.678 10.7488 118.07 10.0825C118.432 9.45543 118.56 9.10269 118.922 7.73091C119.167 6.80006 119.128 4.78158 118.863 4.0467C118.756 3.74295 118.658 3.63517 118.324 3.4196C118.021 3.23343 117.991 3.22363 117.668 3.21383C117.482 3.21383 117.227 3.22363 117.1 3.24323C116.972 3.26282 116.708 3.29222 116.521 3.30202C115.875 3.36081 115.12 3.64496 114.503 4.08589C114.375 4.17408 114.209 4.28186 114.14 4.31126C114.072 4.35045 113.954 4.42884 113.885 4.48763C113.817 4.55622 113.66 4.664 113.543 4.74239C113.425 4.82078 113.298 4.92856 113.239 4.97755C113.19 5.02654 113.131 5.06574 113.102 5.06574C113.072 5.06574 112.906 5.21271 112.71 5.38908C112.523 5.56546 112.347 5.72223 112.318 5.72223C112.288 5.72223 112.229 5.78102 112.171 5.84961C112.112 5.9182 112.053 5.96719 112.033 5.96719C111.975 5.96719 111.779 6.16316 111.779 6.23175C111.779 6.27094 111.749 6.30034 111.71 6.30034C111.671 6.30034 111.632 6.34933 111.622 6.40812C111.602 6.46691 111.583 6.50611 111.563 6.49631C111.514 6.46691 111.397 6.62369 111.318 6.80006C111.279 6.88824 111.21 6.96663 111.171 6.97643C111.122 6.98623 111.093 7.02542 111.083 7.06462C111.083 7.10381 111.063 7.13321 111.044 7.13321C111.024 7.13321 111.005 7.1528 111.005 7.1724C111.005 7.24099 110.642 7.60353 110.593 7.60353C110.573 7.60353 110.309 7.88768 110.309 7.90728C110.309 7.92688 109.515 8.69116 108.8 9.0635C108.241 9.36725 108.094 8.87733 108.094 8.80874C108.114 8.11305 108.035 7.65252 108.016 6.95683C107.996 6.40812 107.986 5.75163 107.977 5.49687C107.967 5.24211 107.947 4.88936 107.937 4.71299C107.908 4.41904 107.888 4.32106 107.8 3.93892C107.683 3.45879 107.134 2.49855 106.703 2.02822C106.546 1.86165 106.497 1.77346 106.517 1.71467C106.536 1.66568 106.526 1.63628 106.497 1.63628C106.468 1.63628 106.458 1.65588 106.477 1.67548C106.487 1.69508 106.477 1.71467 106.438 1.71467C106.399 1.71467 106.37 1.69508 106.37 1.67548C106.37 1.65588 106.33 1.61669 106.281 1.60689C106.232 1.58729 106.174 1.5481 106.144 1.5187C106.125 1.48931 106.007 1.45011 105.889 1.44032C105.772 1.43052 105.635 1.39132 105.586 1.37173C105.527 1.34233 105.488 1.33253 105.468 1.36193C105.448 1.38153 105.409 1.40112 105.38 1.40112C105.341 1.40112 105.272 1.44032 105.233 1.49911C105.154 1.59709 105.145 1.59709 104.998 1.5383C104.841 1.46971 104.429 1.47951 104.429 1.5579C104.429 1.57749 104.449 1.59709 104.478 1.58729C104.508 1.58729 104.557 1.58729 104.586 1.58729C104.665 1.59709 104.596 1.76366 104.488 1.84205C104.39 1.91064 104.331 1.96943 104.086 2.23399C103.988 2.34177 103.871 2.44955 103.812 2.46915C103.763 2.48875 103.694 2.54754 103.675 2.60633C103.655 2.66512 103.606 2.71411 103.567 2.73371C103.459 2.7729 103.44 2.7631 103.498 2.70431C103.528 2.67492 103.547 2.60633 103.557 2.55734C103.557 2.42996 103.665 2.27318 103.871 2.07721C104.037 1.91064 104.086 1.81266 103.969 1.85185C103.93 1.86165 103.91 1.85185 103.91 1.83225C103.91 1.81266 103.881 1.79306 103.851 1.79306C103.783 1.79306 103.763 1.86165 103.822 1.90084C103.871 1.93024 103.773 2.08701 103.704 2.08701C103.675 2.08701 103.606 2.12621 103.547 2.1752C103.489 2.22419 103.361 2.33197 103.263 2.40056C103.165 2.47895 103.097 2.55734 103.106 2.57693C103.116 2.59653 103.087 2.64552 103.038 2.68472C102.989 2.71411 102.95 2.7729 102.959 2.8023C102.969 2.83169 102.95 2.87089 102.92 2.88069C102.891 2.89048 102.861 2.92968 102.861 2.96887C102.861 3.00807 102.812 3.09625 102.754 3.16484C102.695 3.23343 102.636 3.35101 102.626 3.4196C102.538 3.84093 102.479 4.0271 102.421 4.14468C102.381 4.21327 102.342 4.35045 102.332 4.43864C102.225 5.42828 102.176 6.57469 102.205 7.26059C102.254 8.17184 102.264 8.28942 102.332 8.73035C102.372 8.98511 102.401 9.25947 102.401 9.34765C102.391 9.57302 102.411 9.71019 102.45 9.77878C102.47 9.80818 102.489 9.94536 102.489 10.0727C102.489 10.2001 102.518 10.4157 102.548 10.5627C102.607 10.8076 102.626 11.2583 102.577 11.2094C102.567 11.1898 102.548 11.1408 102.538 11.082C102.528 10.9252 102.411 10.2295 102.372 10.0727C102.352 9.99435 102.323 9.81798 102.303 9.6808C102.283 9.55342 102.234 9.36725 102.195 9.27906L102.127 9.11249L102.107 9.31826C102.097 9.42604 102.107 9.58281 102.127 9.6514C102.146 9.72979 102.146 9.76898 102.127 9.74939C102.107 9.73959 102.087 9.73959 102.087 9.76898C102.087 9.79838 102.117 9.81798 102.156 9.81798C102.195 9.81798 102.215 9.85717 102.205 9.91596C102.185 10.0727 102.244 10.4647 102.303 10.4843C102.332 10.4941 102.342 10.5823 102.332 10.6998C102.313 10.935 102.381 11.4641 102.43 11.4935C102.45 11.5033 102.46 11.5719 102.46 11.6307C102.46 11.6895 102.479 11.7679 102.499 11.7875C102.548 11.8365 102.705 12.3264 102.675 12.346C102.636 12.3852 102.567 12.297 102.548 12.1598C102.538 12.0814 102.509 12.0128 102.489 12.0128C102.44 12.0128 102.44 12.0814 102.489 12.1696C102.509 12.2088 102.538 12.2872 102.567 12.346C102.587 12.4048 102.626 12.5027 102.646 12.5713C102.665 12.6399 102.714 12.6889 102.744 12.6889C102.783 12.6889 102.783 12.6791 102.744 12.6399C102.714 12.6105 102.695 12.5419 102.695 12.4832V12.3754L102.754 12.4929C102.783 12.5615 102.861 12.6301 102.93 12.6595C103.018 12.6987 103.028 12.7085 102.979 12.7379C102.93 12.7673 102.93 12.8065 102.969 13.0123C103.018 13.2768 102.999 13.3748 102.92 13.1788C102.891 13.1103 102.861 13.0809 102.852 13.1103C102.842 13.1396 102.871 13.2866 102.93 13.4336C102.989 13.5806 103.038 13.7569 103.057 13.8255C103.077 13.8941 103.106 13.9823 103.126 14.0117C103.146 14.0411 103.155 14.0803 103.136 14.0901C103.106 14.1195 102.91 13.6884 102.91 13.6002C102.91 13.5708 102.852 13.4042 102.773 13.2278C102.695 13.0515 102.636 12.8849 102.636 12.8457C102.636 12.8163 102.626 12.7771 102.616 12.7575C102.567 12.7085 102.332 12.0912 102.254 11.7973C101.96 10.7586 101.617 9.14188 101.558 8.51478C101.548 8.407 101.529 8.27962 101.519 8.22083C101.392 7.45655 101.382 5.56546 101.499 4.55622C101.558 4.0369 101.578 3.95851 101.754 3.35101C101.803 3.16484 101.862 2.96887 101.872 2.91008C101.94 2.59653 102.401 1.93024 102.783 1.58729C103.097 1.30314 103.557 1.00919 103.851 0.901402C103.979 0.85241 104.135 0.774023 104.184 0.734829C104.233 0.695635 104.292 0.656441 104.322 0.656441C104.341 0.656441 104.39 0.617248 104.429 0.568256C104.508 0.450674 104.772 0.323295 105.105 0.235109C105.468 0.146923 105.811 0.195915 106.36 0.431078C106.644 0.548659 107.212 1.08757 107.34 1.34233C107.379 1.41092 107.457 1.5383 107.516 1.61669C107.585 1.69508 107.634 1.78326 107.634 1.82245C107.634 1.85185 107.643 1.88125 107.663 1.88125C107.683 1.88125 107.732 1.96943 107.771 2.07721C107.81 2.185 107.869 2.27318 107.888 2.27318C107.908 2.27318 107.908 2.32217 107.898 2.38097C107.879 2.45935 107.888 2.49855 107.957 2.53774C108.006 2.56714 108.035 2.61613 108.035 2.64552C108.035 2.67492 108.055 2.69452 108.075 2.70431C108.094 2.70431 108.124 2.7729 108.133 2.86109C108.143 2.94927 108.182 3.08645 108.212 3.16484C108.241 3.24323 108.261 3.34121 108.251 3.3902C108.241 3.4392 108.251 3.52738 108.28 3.58617C108.369 3.79194 108.467 4.13489 108.476 4.34065C108.486 4.44843 108.496 4.57581 108.506 4.61501C108.516 4.6542 108.535 4.84037 108.535 5.03634C108.545 5.23231 108.565 5.44788 108.584 5.51646C108.604 5.59485 108.633 5.79082 108.633 5.96719C108.643 6.14356 108.663 6.39832 108.682 6.5355C108.702 6.67268 108.712 6.87845 108.702 6.97643C108.692 7.08421 108.702 7.20179 108.721 7.24099C108.741 7.28998 108.741 7.33897 108.721 7.36837C108.702 7.39776 108.702 7.49575 108.721 7.61333L108.761 7.8093L109.172 7.25079C109.976 6.17296 110.358 5.71243 110.926 5.14412C111.553 4.51702 111.935 4.21327 112.543 3.83113C114.052 2.90028 113.993 2.93948 114.483 2.71411C115.032 2.46915 115.159 2.42016 115.551 2.30258C115.747 2.24379 115.953 2.185 116.002 2.1654C116.051 2.1458 116.188 2.10661 116.325 2.07721C116.639 2.00863 116.717 1.97923 116.806 1.90084C116.884 1.83225 117.011 1.83225 117.854 1.89104C118.354 1.92044 118.462 1.95963 118.648 2.1458C118.707 2.1948 118.785 2.24379 118.824 2.24379C118.873 2.24379 118.912 2.28298 118.922 2.33197C118.932 2.38097 118.961 2.42016 118.991 2.42016C119.05 2.42016 119.177 2.60633 119.177 2.69452C119.177 2.73371 119.216 2.7827 119.255 2.8023C119.304 2.83169 119.334 2.88069 119.334 2.91008C119.334 2.93948 119.363 2.99827 119.393 3.02766C119.461 3.09625 119.775 4.24267 119.736 4.30146C119.726 4.32106 119.726 4.36025 119.755 4.38964C119.775 4.41904 119.814 4.6542 119.834 4.90896C119.853 5.16372 119.883 5.53606 119.902 5.73203C119.922 5.928 119.922 6.27094 119.902 6.49631C119.873 6.85885 119.834 7.07441 119.677 7.69172C119.598 7.98567 119.569 8.14244 119.569 8.23063C119.569 8.26982 119.54 8.34821 119.51 8.3972C119.481 8.4462 119.422 8.60297 119.402 8.74995C119.373 8.89692 119.334 9.0439 119.304 9.0635C119.275 9.08309 119.265 9.12229 119.285 9.13209C119.295 9.14188 119.275 9.21047 119.236 9.27906C119.197 9.34765 119.167 9.43584 119.167 9.48483C119.167 9.53382 119.128 9.6416 119.079 9.72979C119.03 9.81798 118.991 9.92576 118.991 9.97475C118.991 10.0237 118.981 10.0531 118.961 10.0433C118.922 10.0041 118.765 10.0923 118.795 10.1413C118.805 10.1609 118.795 10.1805 118.775 10.1805C118.756 10.1805 118.726 10.2197 118.726 10.2589C118.726 10.3079 118.697 10.3667 118.667 10.3961C118.618 10.4451 118.55 10.6606 118.53 10.837C118.53 10.8664 118.501 10.886 118.471 10.886C118.442 10.886 118.403 10.9448 118.383 11.0134C118.364 11.082 118.315 11.1702 118.266 11.1996C118.217 11.229 118.177 11.3073 118.177 11.3661C118.177 11.4739 118.099 11.5719 118.099 11.4641C118.099 11.3955 117.972 11.6013 117.972 11.6699C117.972 11.6993 117.923 11.7777 117.864 11.8463C117.805 11.9148 117.756 11.9932 117.756 12.0324C117.756 12.101 117.648 12.2088 117.59 12.2088C117.56 12.2088 117.541 12.248 117.541 12.2872C117.541 12.3264 117.511 12.395 117.472 12.4244C117.433 12.4538 117.364 12.5615 117.315 12.6595C117.247 12.7869 117.178 12.8653 117.06 12.9241C116.972 12.9633 116.874 13.0417 116.855 13.1005C116.835 13.1494 116.786 13.218 116.747 13.2474C116.708 13.2768 116.639 13.3748 116.59 13.4532C116.541 13.5316 116.453 13.6394 116.374 13.6786C116.306 13.7276 116.178 13.8451 116.09 13.9529C116.002 14.0607 115.845 14.2175 115.738 14.3057C115.63 14.3938 115.542 14.4918 115.542 14.5212C115.542 14.5506 115.522 14.58 115.502 14.58C115.483 14.58 115.404 14.6388 115.316 14.7074C115.189 14.8152 115.159 14.825 115.15 14.7662C115.14 14.6878 115.081 14.6682 115.042 14.7368C115.032 14.7564 115.032 14.7858 115.061 14.8054C115.13 14.8544 114.914 15.1581 114.816 15.1581C114.797 15.1581 114.689 15.2561 114.562 15.3737C114.444 15.4913 114.248 15.6676 114.13 15.7558C113.876 15.942 113.699 16.089 113.572 16.1968C113.327 16.4221 112.955 16.7063 112.915 16.7063C112.886 16.7063 112.847 16.7553 112.808 16.8043C112.778 16.8631 112.719 16.912 112.68 16.9316C112.641 16.9414 112.553 17.0002 112.474 17.0688C112.249 17.255 112.18 17.304 112.024 17.3922C111.837 17.4901 111.818 17.4999 111.641 17.6567C111.563 17.7253 111.387 17.8331 111.269 17.9017C111.142 17.9703 111.024 18.0487 110.995 18.0683C110.965 18.0977 110.867 18.1564 110.779 18.1956C110.691 18.2348 110.622 18.2838 110.622 18.3034C110.622 18.323 110.554 18.372 110.466 18.421C110.377 18.47 110.289 18.5288 110.26 18.5484C110.24 18.568 110.123 18.6366 110.015 18.715C109.907 18.7835 109.711 18.9207 109.584 19.0187C109.456 19.1167 109.241 19.2833 109.094 19.391C107.83 20.3317 107.075 21.8309 106.487 23.2614C106.428 23.2222 106.379 23.1536 106.389 23.0851C106.36 23.1536 106.33 23.2222 106.291 23.3006C106.262 23.2614 106.242 23.2124 106.213 23.1732C106.154 23.183 106.085 23.1438 106.066 23.0851C106.046 23.1242 106.027 23.1732 106.007 23.2124C105.997 23.183 105.978 23.1536 105.968 23.1242C105.978 23.1732 105.88 23.1438 105.86 23.0949C105.811 22.9969 105.762 22.8989 105.713 22.8009C105.654 22.9185 105.644 23.0263 105.635 23.1438ZM105.801 21.8603C105.87 21.7329 105.86 21.6447 105.772 21.6741C105.654 21.7133 105.595 21.8113 105.644 21.8798C105.713 21.9582 105.742 21.9484 105.801 21.8603ZM106.585 21.4487C106.624 21.3213 106.634 21.0176 106.595 21.047C106.575 21.0666 106.556 21.1548 106.556 21.2527C106.546 21.3507 106.526 21.4585 106.517 21.4879C106.497 21.5173 106.507 21.5369 106.526 21.5369C106.536 21.5369 106.575 21.4977 106.585 21.4487ZM106.615 20.9C106.605 20.8706 106.575 20.8412 106.546 20.8412C106.517 20.8412 106.477 20.8608 106.468 20.8902C106.458 20.9196 106.487 20.9392 106.536 20.949C106.595 20.949 106.624 20.9294 106.615 20.9ZM106.781 20.7726C106.762 20.704 106.791 20.655 106.85 20.5963C106.967 20.4983 106.967 20.4395 106.86 20.4689C106.801 20.4885 106.771 20.4787 106.771 20.4395C106.771 20.4003 106.762 20.4003 106.722 20.4297C106.664 20.4787 106.703 20.8608 106.762 20.8706C106.781 20.8706 106.791 20.8216 106.781 20.7726ZM106.575 20.6648C106.566 20.6256 106.556 20.5767 106.556 20.5571C106.556 20.5375 106.536 20.5179 106.517 20.5179C106.468 20.5179 106.458 20.655 106.497 20.704C106.546 20.7628 106.595 20.7334 106.575 20.6648ZM112.386 16.8728C112.416 16.8728 112.435 16.8533 112.435 16.8337C112.435 16.8141 112.425 16.7945 112.406 16.7945C112.357 16.7945 112.22 16.9316 112.22 16.9708C112.22 17.0002 112.249 16.9806 112.278 16.9414C112.318 16.9022 112.367 16.8728 112.386 16.8728ZM113.013 16.4711C113.004 16.4515 112.964 16.4319 112.925 16.4221C112.886 16.4221 112.876 16.4417 112.886 16.4613C112.896 16.4809 112.935 16.5005 112.974 16.5103C113.013 16.5103 113.033 16.4907 113.013 16.4711ZM113.209 16.2555C113.307 16.2066 113.386 16.1576 113.386 16.138C113.386 16.1184 113.415 16.0694 113.454 16.0302C113.513 15.9812 113.533 15.9714 113.562 16.0204C113.582 16.0596 113.621 16.0498 113.68 15.9714C113.729 15.9126 113.768 15.8538 113.768 15.8244C113.768 15.8048 113.738 15.8146 113.699 15.8636C113.66 15.9126 113.592 15.942 113.533 15.9322C113.464 15.9224 113.405 15.9518 113.327 16.0302C113.268 16.0988 113.17 16.1674 113.102 16.2066C113.033 16.2359 112.984 16.2751 112.984 16.2947C113.004 16.3535 113.004 16.3535 113.209 16.2555ZM114.522 15.2659C114.591 15.2169 114.699 15.1189 114.758 15.0405C114.826 14.9622 114.846 14.923 114.807 14.9426C114.767 14.972 114.709 14.9818 114.679 14.972C114.62 14.9524 114.444 15.0993 114.444 15.1679C114.444 15.1875 114.385 15.2365 114.307 15.2757C114.228 15.3149 114.17 15.3639 114.17 15.3737C114.17 15.4129 114.415 15.3345 114.522 15.2659ZM115.757 14.1293C115.767 14.0999 115.757 14.0803 115.718 14.0901C115.689 14.0999 115.649 14.1293 115.64 14.1587C115.63 14.1881 115.64 14.2077 115.679 14.1979C115.708 14.1979 115.747 14.1587 115.757 14.1293ZM102.783 12.8457C102.763 12.7869 102.724 12.7281 102.695 12.7281C102.665 12.7281 102.656 12.7477 102.675 12.7673C102.685 12.7869 102.714 12.8555 102.744 12.9241C102.773 12.9927 102.793 13.0221 102.812 13.0025C102.812 12.9829 102.803 12.9143 102.783 12.8457ZM105.194 20.1161C105.164 20.0573 105.223 19.9398 105.262 19.9692C105.311 19.9985 105.301 20.1553 105.252 20.1553C105.233 20.1553 105.203 20.1357 105.194 20.1161ZM105.017 19.4302C105.017 19.3812 105.037 19.3421 105.066 19.3421C105.086 19.3421 105.105 19.3812 105.105 19.4302C105.105 19.4792 105.086 19.5184 105.056 19.5184C105.037 19.5086 105.017 19.4694 105.017 19.4302ZM104.88 19.3714C104.851 19.2637 104.87 19.2343 104.939 19.2735C104.988 19.3127 104.998 19.4694 104.939 19.4694C104.919 19.4694 104.89 19.4204 104.88 19.3714ZM107.095 19.3519C107.095 19.3323 107.114 19.3127 107.134 19.3127C107.153 19.3127 107.173 19.3323 107.173 19.3519C107.173 19.3714 107.153 19.391 107.134 19.391C107.104 19.4008 107.085 19.3812 107.095 19.3519ZM104.988 19.2735C104.929 19.2441 104.919 19.1265 104.978 19.1363C104.998 19.1363 105.027 19.1755 105.037 19.2245C105.047 19.2735 105.056 19.3127 105.047 19.3029C105.047 19.2931 105.017 19.2833 104.988 19.2735ZM104.919 19.0285C104.88 18.9109 104.929 18.8521 104.978 18.9501C105.007 19.0089 105.007 19.0481 104.978 19.0677C104.958 19.0775 104.929 19.0677 104.919 19.0285ZM106.252 18.9109C106.252 18.8913 106.272 18.8717 106.301 18.8717C106.33 18.8717 106.33 18.8913 106.321 18.9109C106.301 18.9305 106.281 18.9501 106.272 18.9501C106.262 18.9501 106.252 18.9305 106.252 18.9109ZM106.869 18.7346C106.869 18.6366 106.879 18.5582 106.899 18.568C106.938 18.5974 106.948 18.8815 106.899 18.9011C106.879 18.9109 106.869 18.8325 106.869 18.7346ZM104.733 18.5386C104.674 18.5288 104.665 18.4798 104.665 18.3524C104.665 18.2642 104.684 18.1858 104.713 18.1858C104.733 18.1858 104.753 18.2446 104.753 18.3132C104.753 18.3818 104.772 18.4406 104.802 18.4504C104.87 18.4896 104.811 18.5582 104.733 18.5386ZM104.596 17.8919C104.596 17.8723 104.616 17.8527 104.635 17.8527C104.655 17.8527 104.674 17.8723 104.674 17.8919C104.674 17.9115 104.655 17.9311 104.635 17.9311C104.606 17.9409 104.596 17.9213 104.596 17.8919ZM105.125 17.6077C105.115 17.5489 105.105 17.451 105.105 17.3824C105.105 17.3138 105.115 17.1864 105.115 17.0982C105.115 17.01 105.125 16.9414 105.135 16.9414C105.174 16.9414 105.282 17.2158 105.252 17.2648C105.243 17.2942 105.252 17.3236 105.292 17.3236C105.39 17.3236 105.36 17.5097 105.243 17.6175L105.135 17.7155L105.125 17.6077ZM105.899 17.5293C105.831 17.2452 105.831 17.2354 105.899 17.353C105.938 17.4216 105.958 17.5195 105.948 17.5685C105.929 17.6469 105.919 17.6371 105.899 17.5293ZM104.459 17.3824C104.459 17.2452 104.469 17.2256 104.508 17.2844C104.537 17.3236 104.547 17.3922 104.527 17.4314C104.488 17.5783 104.449 17.5489 104.459 17.3824ZM105.703 16.8141C105.664 16.6475 105.684 16.5887 105.742 16.6965C105.772 16.7553 105.801 16.8239 105.801 16.8533C105.801 16.9512 105.733 16.912 105.703 16.8141ZM104.077 16.6965C104.077 16.6769 104.096 16.6573 104.116 16.6573C104.135 16.6573 104.155 16.6769 104.155 16.6965C104.155 16.7161 104.135 16.7357 104.116 16.7357C104.096 16.7455 104.077 16.7259 104.077 16.6965ZM104.008 16.5005C103.949 16.4319 103.93 16.3731 103.949 16.3437C103.969 16.3143 103.988 16.1968 103.988 16.0792C103.988 15.9616 104.008 15.8734 104.028 15.8832C104.047 15.893 104.057 15.9714 104.047 16.0498C104.037 16.1282 104.047 16.187 104.067 16.187C104.086 16.187 104.106 16.2457 104.106 16.3143C104.096 16.3927 104.116 16.4417 104.135 16.4319C104.184 16.4025 104.184 16.4417 104.135 16.5495C104.106 16.5985 104.086 16.5985 104.008 16.5005ZM103.802 15.697C103.802 15.648 103.783 15.5697 103.753 15.5109C103.675 15.3443 103.645 15.1189 103.704 15.1385C103.734 15.1483 103.763 15.1973 103.763 15.2561C103.773 15.3051 103.802 15.3639 103.822 15.3737C103.851 15.3835 103.871 15.4619 103.861 15.5697C103.851 15.7264 103.802 15.844 103.802 15.697ZM103.587 15.3835C103.567 15.3247 103.567 15.3149 103.606 15.3639C103.636 15.3933 103.645 15.4325 103.636 15.4423C103.626 15.4521 103.596 15.4325 103.587 15.3835ZM103.518 14.8152C103.391 14.5212 103.322 14.3155 103.342 14.2371C103.351 14.1783 103.371 14.1979 103.42 14.2959C103.449 14.3742 103.498 14.433 103.538 14.433C103.577 14.433 103.587 14.4624 103.567 14.5212C103.547 14.5702 103.557 14.678 103.577 14.7662C103.626 14.972 103.596 14.9915 103.518 14.8152ZM103.234 14.4918C103.204 14.3449 103.224 14.3253 103.283 14.4624C103.312 14.5212 103.312 14.58 103.293 14.5898C103.263 14.5996 103.244 14.5506 103.234 14.4918ZM103.185 13.9627C103.097 13.7667 103.008 13.4238 103.028 13.3944C103.038 13.3846 103.097 13.4336 103.175 13.5022C103.302 13.6198 103.371 13.7961 103.302 13.8353C103.253 13.8647 103.253 13.9431 103.302 14.0215C103.342 14.0803 103.351 14.0803 103.381 14.0215C103.42 13.9627 103.42 13.9725 103.42 14.0313C103.42 14.0901 103.342 14.1489 103.273 14.1489C103.273 14.1391 103.224 14.0607 103.185 13.9627ZM102.695 8.88712C102.714 8.83813 102.705 8.76954 102.685 8.72055C102.665 8.67156 102.656 8.62257 102.675 8.61277C102.734 8.58337 102.812 8.79894 102.783 8.88712C102.763 8.92632 102.734 8.96551 102.714 8.96551C102.685 8.97531 102.675 8.93612 102.695 8.88712ZM102.558 8.61277C102.558 8.54418 102.567 8.52458 102.577 8.56378C102.587 8.60297 102.587 8.66176 102.567 8.69116C102.567 8.71075 102.558 8.68136 102.558 8.61277ZM102.489 7.7701C102.489 7.62313 102.489 7.46635 102.469 7.41736C102.43 7.23119 102.518 4.71299 102.567 4.62481C102.597 4.57581 102.636 4.42884 102.665 4.29166C102.724 3.94871 102.734 3.92912 102.822 3.82134C102.861 3.76254 102.901 3.68416 102.901 3.64496C102.901 3.60577 102.93 3.55678 102.969 3.52738C103.008 3.49799 103.038 3.4392 103.038 3.38041C103.038 3.25303 103.302 2.91988 103.342 2.98847C103.361 3.01786 103.351 3.09625 103.332 3.16484C103.312 3.23343 103.273 3.34121 103.244 3.4098C103.224 3.47839 103.165 3.59597 103.116 3.67436C103.067 3.74295 102.989 3.92912 102.95 4.0663C102.901 4.21327 102.842 4.33085 102.812 4.33085C102.754 4.33085 102.744 4.38964 102.744 4.83057C102.744 5.04614 102.724 5.17352 102.675 5.24211C102.626 5.3107 102.616 5.35969 102.656 5.41848C102.685 5.47727 102.685 5.50667 102.656 5.50667C102.587 5.50667 102.597 5.75163 102.675 5.79082C102.754 5.83981 102.734 5.98679 102.646 5.98679C102.567 5.98679 102.567 6.18276 102.636 6.48651C102.675 6.64328 102.675 6.71187 102.636 6.77066C102.597 6.82945 102.597 6.89804 102.616 7.01562C102.636 7.11361 102.636 7.21159 102.607 7.25079C102.577 7.29978 102.567 7.46635 102.577 7.68192C102.587 7.90728 102.577 8.03466 102.548 8.03466C102.499 8.03466 102.489 7.91708 102.489 7.7701ZM114.219 4.6836C114.189 4.6444 114.228 4.58561 114.277 4.58561C114.297 4.58561 114.317 4.61501 114.317 4.6542C114.317 4.71299 114.268 4.73259 114.219 4.6836Z" fill="url(#paint0_linear)"/>
<path d="M28.4272 0.205633C29.2111 0.372207 29.6521 0.803338 29.7403 1.48923C29.6031 3.30194 28.2508 4.74231 25.703 5.80054C24.6741 6.39824 23.5962 6.91756 22.4791 7.37809C21.362 7.83861 20.6369 8.22075 20.3037 8.5245C22.7633 9.31818 24.0078 10.494 24.0372 12.0519C24.1058 13.2669 23.508 14.6093 22.244 16.0889C20.9701 17.6664 18.8535 19.195 15.8941 20.6648C14.7476 21.3311 13.121 21.919 11.0142 22.4285C8.94656 22.987 7.31011 23.3201 6.10482 23.4279C4.88972 23.5357 3.56684 23.4671 2.11657 23.2124C0.970078 22.9282 0.303738 22.3207 0.137153 21.3996C-0.0392313 20.3316 0.431126 19.2538 1.54823 18.1564C2.66533 17.0589 3.99801 16.373 5.53647 16.0987C7.07493 15.8243 8.18223 15.8635 8.86817 16.1967C9.55411 16.5396 10.1127 16.9414 10.5634 17.4117C11.0044 17.882 10.926 18.1172 10.3184 18.1368C9.71089 18.1466 9.19154 18.0682 8.77997 17.8918C8.36841 17.7154 7.92745 17.5979 7.47669 17.5489C7.02593 17.4999 6.41839 17.5489 5.64426 17.7056C4.87013 17.8624 3.91961 18.3817 2.78291 19.244C1.8128 19.9691 1.44044 20.6648 1.66582 21.3213C1.8814 21.8504 3.03769 22.1541 5.1543 22.2325C7.07493 22.1541 8.99556 21.8112 10.9064 21.2135C12.4056 20.8313 13.8657 20.2924 15.2964 19.5967C16.7271 18.901 18.2361 17.931 19.8334 16.716C21.4306 15.4912 22.2832 13.9332 22.4007 12.0323C22.3812 11.2583 21.8814 10.6802 20.9015 10.2784C19.9314 9.87669 19.2062 9.68072 18.7261 9.68072C18.2557 9.68072 17.5796 9.82769 16.6977 10.1216C15.8157 10.4156 15.1788 10.4744 14.7672 10.3176C14.3557 10.1608 14.2381 9.95507 14.4243 9.71991L20.049 7.06454L22.6163 6.14348L25.5757 4.65412C26.5458 4.12501 27.1827 3.72327 27.4767 3.46851C27.7707 3.21375 28.0156 2.94919 28.2018 2.68464C28.388 2.42008 28.4468 2.12613 28.3782 1.81258C28.3096 1.49903 27.8883 1.31286 27.0945 1.24427C26.3008 1.17568 25.4385 1.29326 24.4978 1.58721C23.557 1.88117 22.7927 2.17512 22.2244 2.45927C21.6462 2.74343 21.1269 3.29214 20.6467 4.11521C20.1274 4.32097 19.7452 4.26218 19.5002 3.94863C19.2552 3.63508 19.2846 3.21375 19.5982 2.69444C22.8907 0.626966 25.8304 -0.205901 28.4272 0.205633Z" fill="#C6819A"/>
<path d="M31.112 14.3741C33.748 13.9626 35.1297 14.4427 35.2571 15.8341C35.6098 17.0295 33.6892 18.6365 29.4756 20.6549C25.262 22.6734 22.7338 23.6729 21.8911 23.6631C21.0484 23.6533 20.5094 23.4965 20.2644 23.2123C20.0194 22.9184 19.9607 22.3893 20.0978 21.6152C20.2252 20.8411 21.4403 19.5477 23.7333 17.7252C26.0165 15.9027 28.4859 14.7857 31.112 14.3741ZM22.2144 20.606C21.1855 21.8601 21.4795 22.3501 23.0964 22.0757C24.7132 21.8014 28.0155 20.1748 33.0033 17.1961L33.3756 16.8532C33.8656 16.0987 33.4736 15.6283 32.2193 15.4618C30.9651 15.2952 29.2404 15.7949 27.0454 16.9609C24.8602 18.1465 23.2532 19.3615 22.2144 20.606Z" fill="#C6819A"/>
<path d="M45.5953 14.678C47.3886 13.6492 47.9961 13.6884 47.4082 14.8054C46.7124 15.4717 44.586 17.0394 41.0583 19.5086C40.6566 20.2827 40.4508 20.8706 40.4508 21.2821C40.4508 21.6937 40.9898 21.6937 42.0579 21.2821C43.1358 20.8706 44.5076 20.0182 46.1931 18.7248C46.5459 18.7738 46.6928 19.0383 46.6145 19.538C46.5361 20.0279 45.7717 20.6453 44.3215 21.3899C42.8712 22.1346 41.6953 22.5559 40.7938 22.6539C39.902 22.7519 39.4121 22.6637 39.3337 22.3894C39.2553 22.115 39.3239 21.4095 39.5395 20.2827L33.4836 23.379C32.8271 23.5162 32.5331 23.2614 32.5723 22.6147C33.4248 20.3513 34.0324 19.1853 34.3851 19.1265C35.0809 19.0775 35.2867 19.4694 34.9927 20.2827C33.9148 21.6937 33.9148 22.0758 34.9927 21.4389C39.4709 19.2833 42.9986 17.0394 45.5953 14.678Z" fill="#C6819A"/>
<path d="M57.1582 14.3741C59.7942 13.9626 61.1758 14.4427 61.3032 15.8341C61.656 17.0295 59.7354 18.6365 55.5217 20.6549C51.3081 22.6734 48.7799 23.6729 47.9372 23.6631C47.0945 23.6533 46.5555 23.4965 46.3106 23.2123C46.0656 22.9184 46.0068 22.3893 46.144 21.6152C46.2714 20.8411 47.4865 19.5477 49.7795 17.7252C52.0627 15.9027 54.5222 14.7857 57.1582 14.3741ZM48.2606 20.606C47.2317 21.8601 47.5257 22.3501 49.1425 22.0757C50.7594 21.8014 54.0617 20.1748 59.0494 17.1961L59.4218 16.8532C59.9118 16.0987 59.5198 15.6283 58.2655 15.4618C57.0112 15.2952 55.2866 15.7949 53.0916 16.9609C50.8966 18.1465 49.2895 19.3615 48.2606 20.606Z" fill="#C6819A"/>
<path d="M60.6958 14.4623L77.8149 14.8053C78.2754 15.1286 78.2362 15.4618 77.6875 15.8047C77.1387 16.1476 75.1299 16.275 71.6512 16.177L68.6821 16.1085C67.9276 16.1574 65.9481 15.9517 62.7536 15.5009C63.6649 16.4906 64.1255 18.0779 64.1255 20.2924C66.7223 18.2445 68.5449 17.2157 69.5934 17.2157C70.0246 17.2549 70.1422 17.4802 69.9462 17.8918L62.4204 23.3593C61.9501 23.3495 61.7149 23.1241 61.7247 22.6832L62.7536 21.3114C62.7536 18.1171 61.8423 15.9517 60.0099 14.7955C59.9805 14.5015 60.2058 14.3937 60.6958 14.4623Z" fill="#C6819A"/>
<path d="M83.0769 14.3741C85.7128 13.9626 87.0945 14.4427 87.2219 15.8341C87.5747 17.0295 85.654 18.6365 81.4404 20.6549C77.2268 22.6734 74.6986 23.6729 73.8559 23.6631C73.0132 23.6533 72.4742 23.4965 72.2293 23.2123C71.9843 22.9184 71.9255 22.3893 72.0627 21.6152C72.1901 20.8411 73.4052 19.5477 75.6982 17.7252C77.9813 15.9027 80.4507 14.7857 83.0769 14.3741ZM74.1793 20.606C73.1504 21.8601 73.4444 22.3501 75.0612 22.0757C76.6781 21.8014 79.9804 20.1748 84.9681 17.1961L85.3405 16.8532C85.8304 16.0987 85.4385 15.6283 84.1842 15.4618C82.9299 15.2952 81.2052 15.7949 79.0102 16.9609C76.825 18.1465 75.218 19.3615 74.1793 20.606Z" fill="#C6819A"/>
<path d="M99.3238 14.4623C100.176 14.188 100.539 14.5211 100.411 15.4618C96.5898 18.3915 94.7476 20.0376 94.875 20.3904C94.532 21.0273 94.6986 21.4192 95.3747 21.5662C96.629 21.3996 98.1381 20.8901 99.8823 20.0278C101.636 19.1656 102.43 18.9598 102.273 19.4105C101.862 20.2924 100.411 21.2232 97.9421 22.2129C95.4727 23.2025 94.0323 23.4573 93.6403 22.987C93.2483 22.5166 93.1601 21.4878 93.3757 19.9102L87.0553 22.8596C86.2714 23.0751 85.6148 23.0947 85.0661 22.9184C84.5173 22.742 84.3311 22.2325 84.4683 21.38C86.9279 17.6272 88.6624 15.5793 89.6815 15.2364C90.7006 14.8837 90.9455 15.1188 90.4066 15.9419C87.2513 19.1656 85.7716 21.0175 85.9676 21.478C86.1636 21.9385 87.7804 21.3604 90.8182 19.7437C93.8755 18.1171 96.6976 16.3632 99.3238 14.4623ZM102.087 8.53427H102.352L106.84 9.16137L106.164 9.78847L102.979 9.5533H101.215L99.9705 9.72968L99.6863 9.68068L98.8828 9.70028C96.0117 9.96484 94.63 10.5038 94.7574 11.3366V12.0323L94.1694 12.1009C93.4835 11.9833 93.2189 11.5032 93.3855 10.6801C94.4928 9.03399 97.3934 8.3187 102.087 8.53427Z" fill="#C6819A"/>
<path d="M20.5096 33.3047L19.1475 31.7468H18.5302V33.3047H18.2656V31.7468H17.658L16.296 33.3047H15.9922L17.4425 31.6194L16.1784 30.0125H16.4723L17.658 31.5018H18.2656V30.0125H18.5302V31.5018H19.1377L20.3136 30.0125H20.6174L19.3533 31.6194L20.7938 33.3047H20.5096Z" fill="#C6819A"/>
<path d="M24.7133 29.9438C25.9382 29.9438 26.3497 30.9825 26.193 31.7958H23.361C23.4002 32.7462 24.1449 33.1381 24.9289 33.1381C25.3208 33.1381 25.7226 33.0402 25.997 32.8736V33.1381C25.7128 33.2949 25.3012 33.3831 24.8897 33.3831C23.949 33.3831 23.0964 32.8638 23.0964 31.6586C23.0964 30.5416 23.9 29.9438 24.7133 29.9438ZM24.7231 30.1888C24.0274 30.1888 23.3806 30.6689 23.361 31.5606H25.9676C26.0264 30.9923 25.7226 30.1888 24.7231 30.1888Z" fill="#C6819A"/>
<path d="M29.123 33.3047V30.0125H29.3876V31.5312H31.71V30.0125H31.9746V33.3047H31.71V31.786H29.3876V33.3047H29.123Z" fill="#C6819A"/>
<path d="M36.6782 29.9438C37.0114 29.9438 37.374 30.0222 37.6581 30.2084V30.4632C37.3936 30.277 37.031 30.1888 36.7076 30.1888C35.9531 30.1888 35.1692 30.6297 35.1692 31.688C35.1692 32.6874 35.8943 33.1381 36.6488 33.1381C37.0212 33.1381 37.3936 33.05 37.6973 32.8736V33.1381C37.374 33.3145 37.0016 33.3831 36.6194 33.3831C35.7669 33.3831 34.9144 32.854 34.9144 31.688C34.9046 30.473 35.8257 29.9438 36.6782 29.9438Z" fill="#C6819A"/>
<path d="M40.6074 33.3047V30.0125H40.872V31.492H41.7147L42.9494 30.0125H43.263L41.9205 31.6194L43.4394 33.3047H43.1258L41.6951 31.737H40.8622V33.3047H40.6074V33.3047Z" fill="#C6819A"/>
<path d="M46.105 33.3047V30.0125H46.3696V32.8932L48.7703 30.0125H49.0153V33.3047H48.7507V30.424L46.3402 33.3047H46.105Z" fill="#C6819A"/>
<path d="M52.1804 33.3047V30.0124H52.445V32.8932L54.8458 30.0124H55.0908V33.3047H54.8262V30.424L52.4156 33.3047H52.1804ZM53.6209 29.4637C53.2975 29.4637 53.0035 29.3951 52.739 29.1796V28.9248C53.0231 29.1502 53.2975 29.2286 53.6209 29.2286C53.9443 29.2286 54.2088 29.1502 54.5028 28.9248V29.1796C54.2382 29.3951 53.9443 29.4637 53.6209 29.4637Z" fill="#C6819A"/>
<path d="M66.1245 33.3047L64.7625 31.7468H64.1451V33.3047H63.8903V31.7468H63.2828L61.9207 33.3047H61.6169L63.0672 31.6194L61.8031 30.0125H62.0971L63.2828 31.5018H63.8903V30.0125H64.1549V31.5018H64.7625L65.9384 30.0125H66.2421L64.978 31.6194L66.4185 33.3047H66.1245Z" fill="#C6819A"/>
<path d="M71.769 30.0125H72.0434L70.3285 33.8828C69.9953 34.6275 69.6524 34.8921 69.2016 34.8921C69.084 34.8921 68.9762 34.8823 68.8586 34.8431V34.6079C68.9664 34.6373 69.0742 34.6569 69.1722 34.6569C69.574 34.6569 69.8484 34.3826 70.1129 33.7751L70.3089 33.3145L68.6431 30.0125H68.9272L70.4363 33.0304L71.769 30.0125Z" fill="#C6819A"/>
<path d="M76.5017 29.9438C77.4326 29.9438 78.1381 30.6297 78.1381 31.6684C78.1381 32.707 77.4326 33.3929 76.5017 33.3929C75.8255 33.3929 75.316 33.0206 75.0612 32.56V34.8235H74.7966V30.0222H75.0416V30.8061C75.316 30.3162 75.8157 29.9438 76.5017 29.9438ZM76.4723 30.1888C75.7961 30.1888 75.2572 30.6395 75.0612 31.1882V32.1485C75.2572 32.6972 75.7961 33.1479 76.4723 33.1479C77.266 33.1479 77.8833 32.5992 77.8833 31.6684C77.8736 30.7473 77.266 30.1888 76.4723 30.1888Z" fill="#C6819A"/>
<path d="M81.0779 33.3047V30.0125H81.3425V31.5312H83.6648V30.0125H83.9294V33.3047H83.6648V31.786H81.3327V33.3047H81.0779Z" fill="#C6819A"/>
<path d="M89.9461 33.099C90.0245 33.099 90.1225 33.0794 90.2009 33.05V33.2655C90.0931 33.2949 89.9853 33.3243 89.8775 33.3243C89.6129 33.3243 89.3581 33.1872 89.3581 32.7854V32.6972C89.025 33.1382 88.5154 33.3831 87.9275 33.3831C87.3591 33.3831 86.7908 33.0794 86.7908 32.4229C86.7908 31.639 87.5159 31.3745 88.2214 31.3745C88.6134 31.3745 89.0054 31.443 89.3483 31.5508V31.2471C89.3483 30.6102 88.9564 30.179 88.2116 30.179C87.7217 30.179 87.3101 30.2868 87.0358 30.3946V30.1398C87.2905 30.0517 87.7119 29.9341 88.2312 29.9341C89.1034 29.9341 89.6031 30.4338 89.6031 31.2765V32.7756C89.6227 33.0206 89.7697 33.099 89.9461 33.099ZM87.9863 33.148C88.535 33.148 89.074 32.8834 89.3679 32.3739V31.7762C89.0446 31.6782 88.6526 31.5998 88.2704 31.5998C87.6825 31.5998 87.0749 31.8056 87.0749 32.4131C87.0651 32.9226 87.5159 33.148 87.9863 33.148Z" fill="#C6819A"/>
<path d="M92.6803 33.3537C92.5823 33.3537 92.4843 33.3439 92.3667 33.2949V33.0794C92.4451 33.1186 92.5333 33.1186 92.6117 33.1186C93.229 33.1186 93.4838 31.9819 93.5426 30.0125H95.7768V33.3047H95.5122V30.2574H93.7876C93.719 32.1779 93.4446 33.3537 92.6803 33.3537Z" fill="#C6819A"/>
<defs>
<linearGradient id="paint0_linear" x1="99.8909" y1="16.4904" x2="117.784" y2="1.0272" gradientUnits="userSpaceOnUse">
<stop stop-color="#7E5422"/>
<stop offset="0.1791" stop-color="#E0B55F"/>
<stop offset="0.2142" stop-color="#EFCA72"/>
<stop offset="0.2669" stop-color="#F0E68A"/>
<stop offset="0.3176" stop-color="#EFCA72"/>
<stop offset="0.3514" stop-color="#E0B55F"/>
<stop offset="0.4383" stop-color="#CC9F30"/>
<stop offset="0.5439" stop-color="#C29630"/>
<stop offset="0.6343" stop-color="#CCA031"/>
<stop offset="0.7568" stop-color="#E0B55F"/>
<stop offset="0.7808" stop-color="#EEC970"/>
<stop offset="0.8209" stop-color="#F0E68A"/>
<stop offset="0.8525" stop-color="#ECC46F"/>
<stop offset="0.8682" stop-color="#E0B55F"/>
<stop offset="1" stop-color="#7E5422"/>
</linearGradient>
</defs>
</svg>
