<svg width="175" height="50" viewBox="0 0 175 50" fill="none" xmlns="http://www.w3.org/2000/svg">
<g clip-path="url(#clip0)">
<path opacity="0.7" d="M154.051 33.0627C154.108 32.6988 153.922 32.1808 153.865 31.8169C153.836 31.6489 153.722 31.341 153.765 31.173C153.808 30.991 153.979 31.005 154.037 30.8511C154.065 30.7671 154.108 30.7391 154.194 30.7671C154.265 30.7951 154.308 30.7811 154.308 30.7391C154.308 30.6971 154.279 30.6831 154.251 30.7111C154.222 30.7251 154.194 30.6971 154.194 30.6271C154.194 30.5571 154.222 30.5011 154.265 30.5011C154.38 30.5011 154.337 30.3891 154.208 30.3471C154.051 30.2911 154.008 30.3331 153.994 30.5711C153.979 30.8791 153.865 30.8511 153.851 30.5431C153.836 30.1792 153.779 30.0392 153.722 30.2352C153.694 30.3191 153.651 30.3891 153.608 30.4031C153.551 30.4171 153.536 30.2911 153.551 29.9412C153.565 29.6752 153.536 29.4373 153.508 29.4233C153.408 29.3533 153.451 29.1013 153.594 28.9614C153.665 28.8914 153.736 28.8634 153.765 28.8774C153.779 28.9054 153.765 28.9334 153.736 28.9614C153.694 28.9894 153.679 29.0873 153.708 29.2553C153.736 29.3953 153.722 29.5493 153.694 29.5913C153.608 29.7032 153.622 29.7592 153.736 29.7592C153.794 29.7592 153.822 29.7312 153.794 29.6892C153.765 29.6473 153.779 29.6333 153.836 29.6473C153.879 29.6612 153.922 29.7452 153.922 29.8152C153.922 29.8992 153.965 29.9692 154.008 29.9832C154.051 29.9972 154.122 30.0672 154.179 30.1232C154.308 30.2911 154.38 30.2632 154.351 30.0812C154.337 29.9972 154.308 29.8012 154.294 29.6473C154.279 29.4933 154.222 29.1993 154.179 28.9754C154.108 28.6534 154.108 28.5414 154.179 28.3735C154.265 28.1355 154.265 27.8275 154.165 27.8275C154.137 27.8275 154.108 27.9395 154.108 28.0795L154.122 28.3315L154.008 28.0095C153.951 27.8275 153.894 27.6456 153.908 27.5896C153.908 27.5336 153.836 27.2396 153.751 26.9317C153.608 26.4138 153.579 26.2318 153.636 25.8819C153.651 25.7979 153.622 25.7279 153.579 25.7139C153.536 25.6999 153.494 25.7419 153.494 25.8539L153.479 26.0218L153.422 25.8259C153.365 25.6439 153.379 25.6159 153.594 25.4199C153.722 25.3079 153.822 25.238 153.822 25.28C153.822 25.3219 153.779 25.3919 153.722 25.4479C153.594 25.5599 153.636 25.6159 153.808 25.5319C153.922 25.4759 153.937 25.5039 153.994 25.7559C154.079 26.1478 154.151 26.3298 154.208 26.3018C154.237 26.2878 154.251 26.4418 154.251 26.6517C154.251 26.9037 154.28 27.0997 154.38 27.2676C154.451 27.4076 154.522 27.6176 154.537 27.7436C154.551 27.8695 154.594 27.9955 154.637 28.0095C154.722 28.0655 154.665 27.6176 154.537 27.3376C154.48 27.1836 154.437 26.9877 154.451 26.8057C154.465 26.6517 154.451 26.4838 154.408 26.4418C154.351 26.3718 154.365 25.9378 154.437 25.8819C154.451 25.8679 154.494 25.9658 154.537 26.1058C154.565 26.2458 154.622 26.4278 154.665 26.4978C154.708 26.5677 154.737 26.7357 154.737 26.8617C154.737 26.9877 154.765 27.1696 154.78 27.2536C154.794 27.3376 154.823 27.5056 154.837 27.6176C154.851 27.7296 154.88 27.9255 154.894 28.0375C154.923 28.1915 154.908 28.2475 154.823 28.2895C154.765 28.3175 154.737 28.3735 154.751 28.4014C154.765 28.4294 154.808 28.4434 154.851 28.4294C154.88 28.4154 154.908 28.4294 154.908 28.4714C154.908 28.5134 154.951 28.5274 154.994 28.5134C155.051 28.4854 155.08 28.5134 155.08 28.6114C155.08 28.6814 155.123 28.8074 155.194 28.8914C155.408 29.1713 155.408 28.9054 155.208 28.1495C155.065 27.5896 155.037 27.4216 155.094 27.3236C155.151 27.2116 155.166 27.2116 155.166 27.2956C155.166 27.4636 155.308 27.5756 155.466 27.5476C155.566 27.5196 155.594 27.5476 155.594 27.6316C155.594 27.7016 155.551 27.7855 155.494 27.8275C155.394 27.8975 155.394 28.0935 155.48 28.6394L155.508 28.8214L155.623 28.6814L155.737 28.5414V28.7094C155.737 28.8074 155.766 28.8774 155.809 28.8774C155.851 28.8774 155.866 28.9334 155.837 29.0034C155.794 29.1293 155.88 29.1713 155.951 29.0593C155.98 29.0174 156.009 28.8494 156.023 28.6814C156.066 28.3455 156.137 28.2195 156.252 28.3315C156.309 28.3875 156.309 28.4014 156.237 28.4014C156.18 28.4014 156.166 28.4154 156.223 28.4854C156.28 28.5694 156.209 28.9334 156.052 29.3393C156.023 29.4233 156.023 29.4373 156.066 29.3953C156.094 29.3673 156.18 29.1853 156.252 28.9894C156.352 28.7094 156.38 28.6534 156.452 28.7094C156.523 28.7654 156.537 28.7514 156.537 28.6674C156.537 28.5974 156.609 28.4994 156.68 28.4294C156.752 28.3595 156.909 28.1915 157.023 28.0515C157.824 27.0437 158.638 26.2878 159.938 25.3919C160.296 25.14 160.624 24.916 160.667 24.888C160.839 24.748 161.71 24.1881 161.996 24.0341C162.168 23.9362 162.368 23.8102 162.454 23.7402C162.525 23.6702 162.611 23.6142 162.654 23.6142C162.682 23.6142 162.754 23.5582 162.825 23.5022C162.882 23.4322 162.968 23.3903 162.997 23.3903C163.054 23.3903 163.568 23.0403 163.84 22.8303C163.911 22.7744 164.14 22.6064 164.34 22.4664C164.54 22.3264 164.769 22.1584 164.84 22.1025C164.912 22.0465 165.14 21.8505 165.369 21.6545C165.583 21.4726 165.826 21.2766 165.898 21.2346C166.241 21.0246 166.855 20.5067 167.541 19.8768C167.955 19.4989 168.298 19.1769 168.313 19.1769C168.341 19.1769 169.47 18.0991 169.47 18.0571C169.47 18.0291 169.613 17.8751 169.799 17.7212C170.142 17.3992 170.313 17.2032 171.028 16.1954C171.485 15.5515 171.614 15.3555 172.185 14.4037C172.714 13.5078 172.9 13.0039 173.429 11.0442C173.786 9.71444 173.729 6.8309 173.343 5.78107C173.186 5.34714 173.043 5.19316 172.557 4.88521C172.114 4.61925 172.071 4.60526 171.599 4.59126C171.328 4.59126 170.956 4.60526 170.771 4.63325C170.585 4.66125 170.199 4.70324 169.927 4.71724C168.984 4.80123 167.884 5.20716 166.984 5.83706C166.798 5.96304 166.555 6.11701 166.455 6.15901C166.355 6.215 166.183 6.32698 166.083 6.41097C165.983 6.50895 165.755 6.66293 165.583 6.77491C165.412 6.88689 165.226 7.04087 165.14 7.11086C165.069 7.18084 164.983 7.23684 164.94 7.23684C164.897 7.23684 164.654 7.4468 164.368 7.69876C164.097 7.95072 163.84 8.17469 163.797 8.17469C163.754 8.17469 163.668 8.25867 163.583 8.35666C163.497 8.45464 163.411 8.52463 163.382 8.52463C163.297 8.52463 163.011 8.80458 163.011 8.90257C163.011 8.95856 162.968 9.00055 162.911 9.00055C162.854 9.00055 162.797 9.07054 162.782 9.15453C162.754 9.23851 162.725 9.29451 162.697 9.28051C162.625 9.23852 162.454 9.46248 162.339 9.71444C162.282 9.84042 162.182 9.9524 162.125 9.9664C162.053 9.9804 162.011 10.0364 161.996 10.0924C161.996 10.1484 161.968 10.1904 161.939 10.1904C161.911 10.1904 161.882 10.2184 161.882 10.2464C161.882 10.3443 161.353 10.8623 161.282 10.8623C161.253 10.8623 160.867 11.2682 160.867 11.2962C160.867 11.3242 159.71 12.416 158.667 12.9479C157.852 13.3819 157.638 12.682 157.638 12.584C157.666 11.5901 157.552 10.9322 157.523 9.9384C157.495 9.15453 157.481 8.21668 157.466 7.85274C157.452 7.48879 157.423 6.98488 157.409 6.73292C157.366 6.31298 157.338 6.17301 157.209 5.62709C157.038 4.9412 156.237 3.56942 155.609 2.89753C155.38 2.65957 155.308 2.53359 155.337 2.4496C155.366 2.37961 155.351 2.33762 155.308 2.33762C155.266 2.33762 155.251 2.36561 155.28 2.39361C155.294 2.42161 155.28 2.4496 155.223 2.4496C155.165 2.4496 155.123 2.42161 155.123 2.39361C155.123 2.36561 155.065 2.30962 154.994 2.29563C154.923 2.26763 154.837 2.21164 154.794 2.16965C154.765 2.12765 154.594 2.07166 154.422 2.05766C154.251 2.04367 154.051 1.98768 153.979 1.95968C153.894 1.91769 153.836 1.90369 153.808 1.94568C153.779 1.97368 153.722 2.00167 153.679 2.00167C153.622 2.00167 153.522 2.05766 153.465 2.14165C153.351 2.28163 153.336 2.28163 153.122 2.19764C152.893 2.09966 152.293 2.11366 152.293 2.22564C152.293 2.25363 152.322 2.28163 152.365 2.26763C152.407 2.26763 152.479 2.26763 152.522 2.26763C152.636 2.28163 152.536 2.51959 152.379 2.63157C152.236 2.72956 152.15 2.81354 151.793 3.19148C151.65 3.34546 151.479 3.49943 151.393 3.52743C151.321 3.55542 151.221 3.63941 151.193 3.7234C151.164 3.80738 151.093 3.87737 151.036 3.90537C150.878 3.96136 150.85 3.94736 150.936 3.86338C150.978 3.82138 151.007 3.7234 151.021 3.65341C151.021 3.47144 151.178 3.24747 151.479 2.96752C151.722 2.72956 151.793 2.58958 151.621 2.64557C151.564 2.65957 151.536 2.64557 151.536 2.61757C151.536 2.58958 151.493 2.56158 151.45 2.56158C151.35 2.56158 151.321 2.65957 151.407 2.71556C151.479 2.75755 151.336 2.98152 151.236 2.98152C151.193 2.98152 151.093 3.03751 151.007 3.1075C150.921 3.17748 150.735 3.33146 150.593 3.42944C150.45 3.54143 150.35 3.65341 150.364 3.6814C150.378 3.7094 150.335 3.77939 150.264 3.83538C150.192 3.87737 150.135 3.96136 150.15 4.00335C150.164 4.04535 150.135 4.10134 150.092 4.11533C150.05 4.12933 150.007 4.18532 150.007 4.24131C150.007 4.29731 149.935 4.42329 149.849 4.52127C149.764 4.61925 149.678 4.78723 149.664 4.88521C149.535 5.48712 149.449 5.75307 149.364 5.92105C149.306 6.01903 149.249 6.215 149.235 6.34098C149.078 7.75475 149.006 9.39249 149.049 10.3723C149.121 11.6741 149.135 11.8421 149.235 12.472C149.292 12.8359 149.335 13.2279 149.335 13.3539C149.321 13.6758 149.349 13.8718 149.406 13.9698C149.435 14.0118 149.464 14.2077 149.464 14.3897C149.464 14.5717 149.507 14.8796 149.549 15.0896C149.635 15.4395 149.664 16.0834 149.592 16.0134C149.578 15.9854 149.549 15.9154 149.535 15.8315C149.521 15.6075 149.349 14.6137 149.292 14.3897C149.264 14.2777 149.221 14.0257 149.192 13.8298C149.164 13.6478 149.092 13.3819 149.035 13.2559L148.935 13.0179L148.906 13.3119C148.892 13.4658 148.906 13.6898 148.935 13.7878C148.963 13.8998 148.963 13.9558 148.935 13.9278C148.906 13.9138 148.878 13.9138 148.878 13.9558C148.878 13.9978 148.921 14.0257 148.978 14.0257C149.035 14.0257 149.064 14.0817 149.049 14.1657C149.021 14.3897 149.106 14.9496 149.192 14.9776C149.235 14.9916 149.249 15.1176 149.235 15.2855C149.206 15.6215 149.306 16.3774 149.378 16.4194C149.406 16.4334 149.421 16.5313 149.421 16.6153C149.421 16.6993 149.449 16.8113 149.478 16.8393C149.549 16.9093 149.778 17.6092 149.735 17.6372C149.678 17.6932 149.578 17.5672 149.549 17.3712C149.535 17.2592 149.492 17.1612 149.464 17.1612C149.392 17.1612 149.392 17.2592 149.464 17.3852C149.492 17.4412 149.535 17.5532 149.578 17.6372C149.607 17.7212 149.664 17.8611 149.692 17.9591C149.721 18.0571 149.792 18.1271 149.835 18.1271C149.892 18.1271 149.892 18.1131 149.835 18.0571C149.792 18.0151 149.764 17.9171 149.764 17.8331V17.6792L149.849 17.8471C149.892 17.9451 150.007 18.0431 150.107 18.0851C150.235 18.1411 150.25 18.1551 150.178 18.1971C150.107 18.2391 150.107 18.2951 150.164 18.589C150.235 18.967 150.207 19.1069 150.092 18.827C150.05 18.729 150.007 18.687 149.992 18.729C149.978 18.771 150.021 18.981 150.107 19.1909C150.192 19.4009 150.264 19.6529 150.292 19.7508C150.321 19.8488 150.364 19.9748 150.393 20.0168C150.421 20.0588 150.435 20.1148 150.407 20.1288C150.364 20.1708 150.078 19.5549 150.078 19.4289C150.078 19.3869 149.992 19.1489 149.878 18.897C149.764 18.645 149.678 18.407 149.678 18.3511C149.678 18.3091 149.664 18.2531 149.649 18.2251C149.578 18.1551 149.235 17.2732 149.121 16.8533C148.692 15.3695 148.192 13.0599 148.106 12.164C148.092 12.0101 148.063 11.8281 148.049 11.7441C147.863 10.6523 147.849 7.95072 148.02 6.50895C148.106 5.76707 148.135 5.65509 148.392 4.78723C148.463 4.52127 148.549 4.24131 148.563 4.15733C148.663 3.7094 149.335 2.75755 149.892 2.26763C150.35 1.8617 151.021 1.44176 151.45 1.28779C151.636 1.2178 151.864 1.10582 151.936 1.04983C152.007 0.993834 152.093 0.937843 152.136 0.937843C152.165 0.937843 152.236 0.881852 152.293 0.811863C152.407 0.64389 152.793 0.461919 153.279 0.33594C153.808 0.20996 154.308 0.279949 155.108 0.615895C155.523 0.783868 156.352 1.55374 156.537 1.91769C156.595 2.01567 156.709 2.19764 156.795 2.30962C156.895 2.42161 156.966 2.54759 156.966 2.60358C156.966 2.64557 156.98 2.68756 157.009 2.68756C157.038 2.68756 157.109 2.81354 157.166 2.96752C157.223 3.12149 157.309 3.24747 157.338 3.24747C157.366 3.24747 157.366 3.31746 157.352 3.40145C157.323 3.51343 157.338 3.56942 157.438 3.62541C157.509 3.66741 157.552 3.7374 157.552 3.77939C157.552 3.82138 157.581 3.84938 157.609 3.86338C157.638 3.86338 157.681 3.96136 157.695 4.08734C157.709 4.21332 157.766 4.40929 157.809 4.52127C157.852 4.63325 157.881 4.77323 157.866 4.84322C157.852 4.91321 157.866 5.03919 157.909 5.12317C158.038 5.41713 158.181 5.90705 158.195 6.201C158.209 6.35498 158.224 6.53695 158.238 6.59294C158.252 6.64893 158.281 6.91489 158.281 7.19484C158.295 7.4748 158.324 7.78275 158.352 7.88073C158.381 7.99271 158.424 8.27267 158.424 8.52463C158.438 8.77659 158.467 9.14053 158.495 9.3365C158.524 9.53247 158.538 9.82642 158.524 9.9664C158.509 10.1204 158.524 10.2883 158.552 10.3443C158.581 10.4143 158.581 10.4843 158.552 10.5263C158.524 10.5683 158.524 10.7083 158.552 10.8763L158.609 11.1562L159.21 10.3583C160.381 8.81858 160.939 8.16069 161.768 7.34882C162.682 6.45296 163.24 6.01903 164.126 5.47312C166.326 4.14333 166.241 4.19932 166.955 3.87737C167.755 3.52743 167.941 3.45744 168.513 3.28947C168.799 3.20548 169.099 3.12149 169.17 3.0935C169.242 3.0655 169.442 3.00951 169.642 2.96752C170.099 2.86953 170.213 2.82754 170.342 2.71556C170.456 2.61757 170.642 2.61757 171.871 2.70156C172.6 2.74355 172.757 2.79955 173.028 3.0655C173.114 3.13549 173.229 3.20548 173.286 3.20548C173.357 3.20548 173.414 3.26147 173.429 3.33146C173.443 3.40145 173.486 3.45744 173.529 3.45744C173.614 3.45744 173.8 3.7234 173.8 3.84938C173.8 3.90537 173.857 3.97536 173.914 4.00335C173.986 4.04535 174.029 4.11533 174.029 4.15733C174.029 4.19932 174.072 4.28331 174.115 4.3253C174.215 4.42329 174.672 6.06102 174.615 6.14501C174.6 6.17301 174.6 6.229 174.643 6.27099C174.672 6.31298 174.729 6.64893 174.758 7.01287C174.786 7.37681 174.829 7.90873 174.858 8.18868C174.886 8.46864 174.886 8.95856 174.858 9.28051C174.815 9.79843 174.758 10.1064 174.529 10.9882C174.415 11.4082 174.372 11.6321 174.372 11.7581C174.372 11.8141 174.329 11.9261 174.286 11.9961C174.243 12.0661 174.157 12.29 174.129 12.5C174.086 12.71 174.029 12.9199 173.986 12.9479C173.943 12.9759 173.929 13.0319 173.957 13.0459C173.972 13.0599 173.943 13.1579 173.886 13.2559C173.829 13.3539 173.786 13.4798 173.786 13.5498C173.786 13.6198 173.729 13.7738 173.657 13.8998C173.586 14.0257 173.529 14.1797 173.529 14.2497C173.529 14.3197 173.514 14.3617 173.486 14.3477C173.429 14.2917 173.2 14.4177 173.243 14.4877C173.257 14.5157 173.243 14.5437 173.214 14.5437C173.186 14.5437 173.143 14.5997 173.143 14.6556C173.143 14.7256 173.1 14.8096 173.057 14.8516C172.986 14.9216 172.886 15.2296 172.857 15.4815C172.857 15.5235 172.814 15.5515 172.771 15.5515C172.728 15.5515 172.671 15.6355 172.643 15.7335C172.614 15.8315 172.543 15.9574 172.471 15.9994C172.4 16.0414 172.343 16.1534 172.343 16.2374C172.343 16.3914 172.228 16.5313 172.228 16.3774C172.228 16.2794 172.042 16.5733 172.042 16.6713C172.042 16.7133 171.971 16.8253 171.885 16.9233C171.8 17.0213 171.728 17.1333 171.728 17.1892C171.728 17.2872 171.571 17.4412 171.485 17.4412C171.442 17.4412 171.414 17.4972 171.414 17.5532C171.414 17.6092 171.371 17.7072 171.314 17.7492C171.256 17.7911 171.156 17.9451 171.085 18.0851C170.985 18.2671 170.885 18.3791 170.713 18.463C170.585 18.519 170.442 18.631 170.413 18.715C170.385 18.785 170.313 18.883 170.256 18.925C170.199 18.967 170.099 19.1069 170.028 19.2189C169.956 19.3309 169.827 19.4849 169.713 19.5409C169.613 19.6109 169.427 19.7788 169.299 19.9328C169.17 20.0868 168.941 20.3107 168.784 20.4367C168.627 20.5627 168.498 20.7027 168.498 20.7447C168.498 20.7867 168.47 20.8287 168.441 20.8287C168.413 20.8287 168.298 20.9126 168.17 21.0106C167.984 21.1646 167.941 21.1786 167.927 21.0946C167.913 20.9826 167.827 20.9546 167.77 21.0526C167.755 21.0806 167.755 21.1226 167.798 21.1506C167.898 21.2206 167.584 21.6545 167.441 21.6545C167.412 21.6545 167.255 21.7945 167.069 21.9625C166.898 22.1305 166.612 22.3824 166.441 22.5084C166.069 22.7744 165.812 22.9843 165.626 23.1383C165.269 23.4602 164.726 23.8662 164.669 23.8662C164.626 23.8662 164.569 23.9362 164.511 24.0062C164.469 24.0901 164.383 24.1601 164.326 24.1881C164.268 24.2021 164.14 24.2861 164.026 24.3841C163.697 24.65 163.597 24.72 163.368 24.846C163.097 24.986 163.068 25 162.811 25.224C162.697 25.3219 162.439 25.4759 162.268 25.5739C162.082 25.6719 161.911 25.7839 161.868 25.8119C161.825 25.8539 161.682 25.9378 161.553 25.9938C161.425 26.0498 161.325 26.1198 161.325 26.1478C161.325 26.1758 161.225 26.2458 161.096 26.3158C160.967 26.3858 160.839 26.4698 160.796 26.4978C160.767 26.5258 160.596 26.6237 160.439 26.7357C160.281 26.8337 159.996 27.0297 159.81 27.1696C159.624 27.3096 159.31 27.5476 159.095 27.7016C157.252 29.0453 156.152 31.187 155.294 33.2307C155.208 33.1747 155.137 33.0767 155.151 32.9787C155.108 33.0767 155.065 33.1747 155.008 33.2867C154.965 33.2307 154.937 33.1607 154.894 33.1047C154.808 33.1187 154.708 33.0627 154.68 32.9787C154.651 33.0347 154.622 33.1047 154.594 33.1607C154.58 33.1187 154.551 33.0767 154.537 33.0347C154.551 33.1047 154.408 33.0627 154.38 32.9927C154.308 32.8527 154.237 32.7128 154.165 32.5728C154.079 32.7408 154.065 32.8947 154.051 33.0627ZM154.294 31.229C154.394 31.047 154.38 30.921 154.251 30.963C154.079 31.019 153.994 31.159 154.065 31.257C154.165 31.369 154.208 31.355 154.294 31.229ZM155.437 30.6411C155.494 30.4591 155.508 30.0252 155.451 30.0672C155.423 30.0952 155.394 30.2212 155.394 30.3611C155.38 30.5011 155.351 30.6551 155.337 30.6971C155.308 30.7391 155.323 30.7671 155.351 30.7671C155.366 30.7671 155.423 30.7111 155.437 30.6411ZM155.48 29.8572C155.466 29.8152 155.423 29.7732 155.38 29.7732C155.337 29.7732 155.28 29.8012 155.266 29.8432C155.251 29.8852 155.294 29.9132 155.366 29.9272C155.451 29.9272 155.494 29.8992 155.48 29.8572ZM155.723 29.6752C155.694 29.5773 155.737 29.5073 155.823 29.4233C155.994 29.2833 155.994 29.1993 155.837 29.2413C155.751 29.2693 155.709 29.2553 155.709 29.1993C155.709 29.1433 155.694 29.1433 155.637 29.1853C155.551 29.2553 155.608 29.8012 155.694 29.8152C155.723 29.8152 155.737 29.7452 155.723 29.6752ZM155.423 29.5213C155.408 29.4653 155.394 29.3953 155.394 29.3673C155.394 29.3393 155.366 29.3113 155.337 29.3113C155.266 29.3113 155.251 29.5073 155.308 29.5773C155.38 29.6612 155.451 29.6193 155.423 29.5213ZM163.897 24.1041C163.94 24.1041 163.968 24.0761 163.968 24.0481C163.968 24.0202 163.954 23.9922 163.925 23.9922C163.854 23.9922 163.654 24.1881 163.654 24.2441C163.654 24.2861 163.697 24.2581 163.74 24.2021C163.797 24.1461 163.868 24.1041 163.897 24.1041ZM164.812 23.5302C164.797 23.5022 164.74 23.4742 164.683 23.4602C164.626 23.4602 164.611 23.4882 164.626 23.5162C164.64 23.5442 164.697 23.5722 164.754 23.5862C164.812 23.5862 164.84 23.5582 164.812 23.5302ZM165.097 23.2223C165.24 23.1523 165.355 23.0823 165.355 23.0543C165.355 23.0263 165.397 22.9563 165.455 22.9003C165.54 22.8303 165.569 22.8163 165.612 22.8863C165.64 22.9423 165.698 22.9283 165.783 22.8163C165.855 22.7324 165.912 22.6484 165.912 22.6064C165.912 22.5784 165.869 22.5924 165.812 22.6624C165.755 22.7324 165.655 22.7744 165.569 22.7604C165.469 22.7464 165.383 22.7883 165.269 22.9003C165.183 22.9983 165.04 23.0963 164.94 23.1523C164.84 23.1943 164.769 23.2503 164.769 23.2783C164.797 23.3623 164.797 23.3623 165.097 23.2223ZM167.012 21.8085C167.112 21.7385 167.269 21.5985 167.355 21.4866C167.455 21.3746 167.484 21.3186 167.427 21.3466C167.369 21.3886 167.284 21.4026 167.241 21.3886C167.155 21.3606 166.898 21.5705 166.898 21.6685C166.898 21.6965 166.812 21.7665 166.698 21.8225C166.584 21.8785 166.498 21.9485 166.498 21.9625C166.498 22.0185 166.855 21.9065 167.012 21.8085ZM168.813 20.1848C168.827 20.1428 168.813 20.1148 168.756 20.1288C168.713 20.1428 168.656 20.1848 168.641 20.2268C168.627 20.2688 168.641 20.2967 168.698 20.2827C168.741 20.2827 168.799 20.2268 168.813 20.1848ZM149.892 18.3511C149.864 18.2671 149.807 18.1831 149.764 18.1831C149.721 18.1831 149.707 18.2111 149.735 18.2391C149.749 18.2671 149.792 18.3651 149.835 18.463C149.878 18.561 149.907 18.603 149.935 18.575C149.935 18.547 149.921 18.449 149.892 18.3511ZM153.408 28.7374C153.365 28.6534 153.451 28.4854 153.508 28.5274C153.579 28.5694 153.565 28.7934 153.494 28.7934C153.465 28.7934 153.422 28.7654 153.408 28.7374ZM153.151 27.7576C153.151 27.6876 153.179 27.6316 153.222 27.6316C153.251 27.6316 153.279 27.6876 153.279 27.7576C153.279 27.8275 153.251 27.8835 153.208 27.8835C153.179 27.8695 153.151 27.8135 153.151 27.7576ZM152.95 27.6736C152.908 27.5196 152.936 27.4776 153.036 27.5336C153.108 27.5896 153.122 27.8135 153.036 27.8135C153.008 27.8135 152.965 27.7436 152.95 27.6736ZM156.18 27.6456C156.18 27.6176 156.209 27.5896 156.237 27.5896C156.266 27.5896 156.294 27.6176 156.294 27.6456C156.294 27.6736 156.266 27.7016 156.237 27.7016C156.194 27.7156 156.166 27.6876 156.18 27.6456ZM153.108 27.5336C153.022 27.4916 153.008 27.3236 153.093 27.3376C153.122 27.3376 153.165 27.3936 153.179 27.4636C153.193 27.5336 153.208 27.5896 153.193 27.5756C153.193 27.5616 153.151 27.5476 153.108 27.5336ZM153.008 27.1836C152.95 27.0157 153.022 26.9317 153.093 27.0717C153.136 27.1556 153.136 27.2116 153.093 27.2396C153.065 27.2536 153.022 27.2396 153.008 27.1836ZM154.951 27.0157C154.951 26.9877 154.98 26.9597 155.023 26.9597C155.065 26.9597 155.065 26.9877 155.051 27.0157C155.023 27.0437 154.994 27.0717 154.98 27.0717C154.965 27.0717 154.951 27.0437 154.951 27.0157ZM155.851 26.7637C155.851 26.6237 155.866 26.5118 155.894 26.5258C155.951 26.5677 155.966 26.9737 155.894 27.0017C155.866 27.0157 155.851 26.9037 155.851 26.7637ZM152.736 26.4838C152.65 26.4698 152.636 26.3998 152.636 26.2178C152.636 26.0918 152.665 25.9798 152.708 25.9798C152.736 25.9798 152.765 26.0638 152.765 26.1618C152.765 26.2598 152.793 26.3438 152.836 26.3578C152.936 26.4138 152.85 26.5118 152.736 26.4838ZM152.536 25.5599C152.536 25.5319 152.565 25.5039 152.593 25.5039C152.622 25.5039 152.65 25.5319 152.65 25.5599C152.65 25.5879 152.622 25.6159 152.593 25.6159C152.55 25.6299 152.536 25.6019 152.536 25.5599ZM153.308 25.154C153.293 25.07 153.279 24.93 153.279 24.832C153.279 24.734 153.293 24.5521 153.293 24.4261C153.293 24.3001 153.308 24.2021 153.322 24.2021C153.379 24.2021 153.536 24.5941 153.494 24.664C153.479 24.706 153.494 24.748 153.551 24.748C153.694 24.748 153.651 25.014 153.479 25.168L153.322 25.3079L153.308 25.154ZM154.437 25.042C154.337 24.6361 154.337 24.6221 154.437 24.79C154.494 24.888 154.522 25.028 154.508 25.098C154.48 25.21 154.465 25.196 154.437 25.042ZM152.336 24.832C152.336 24.6361 152.35 24.6081 152.407 24.692C152.45 24.748 152.465 24.846 152.436 24.902C152.379 25.112 152.322 25.07 152.336 24.832ZM154.151 24.0202C154.094 23.7822 154.122 23.6982 154.208 23.8522C154.251 23.9362 154.294 24.0341 154.294 24.0761C154.294 24.2161 154.194 24.1601 154.151 24.0202ZM151.779 23.8522C151.779 23.8242 151.807 23.7962 151.836 23.7962C151.864 23.7962 151.893 23.8242 151.893 23.8522C151.893 23.8802 151.864 23.9082 151.836 23.9082C151.807 23.9222 151.779 23.8942 151.779 23.8522ZM151.679 23.5722C151.593 23.4742 151.564 23.3903 151.593 23.3483C151.621 23.3063 151.65 23.1383 151.65 22.9703C151.65 22.8023 151.679 22.6764 151.707 22.6904C151.736 22.7044 151.75 22.8163 151.736 22.9283C151.722 23.0403 151.736 23.1243 151.764 23.1243C151.793 23.1243 151.822 23.2083 151.822 23.3063C151.807 23.4182 151.836 23.4882 151.864 23.4742C151.936 23.4322 151.936 23.4882 151.864 23.6422C151.822 23.7122 151.793 23.7122 151.679 23.5722ZM151.379 22.4244C151.379 22.3544 151.35 22.2424 151.307 22.1584C151.193 21.9205 151.15 21.5985 151.236 21.6265C151.279 21.6405 151.321 21.7105 151.321 21.7945C151.336 21.8645 151.379 21.9485 151.407 21.9625C151.45 21.9765 151.479 22.0885 151.464 22.2424C151.45 22.4664 151.379 22.6344 151.379 22.4244ZM151.064 21.9765C151.036 21.8925 151.036 21.8785 151.093 21.9485C151.136 21.9905 151.15 22.0465 151.136 22.0605C151.121 22.0745 151.078 22.0465 151.064 21.9765ZM150.964 21.1646C150.778 20.7447 150.678 20.4507 150.707 20.3387C150.721 20.2548 150.75 20.2827 150.821 20.4227C150.864 20.5347 150.936 20.6187 150.993 20.6187C151.05 20.6187 151.064 20.6607 151.036 20.7447C151.007 20.8147 151.021 20.9686 151.05 21.0946C151.121 21.3886 151.078 21.4166 150.964 21.1646ZM150.55 20.7027C150.507 20.4927 150.535 20.4647 150.621 20.6607C150.664 20.7447 150.664 20.8287 150.635 20.8427C150.593 20.8567 150.564 20.7867 150.55 20.7027ZM150.478 19.9468C150.35 19.6668 150.221 19.1769 150.25 19.1349C150.264 19.1209 150.35 19.1909 150.464 19.2889C150.65 19.4569 150.75 19.7088 150.65 19.7648C150.578 19.8068 150.578 19.9188 150.65 20.0308C150.707 20.1148 150.721 20.1148 150.764 20.0308C150.821 19.9468 150.821 19.9608 150.821 20.0448C150.821 20.1288 150.707 20.2128 150.607 20.2128C150.607 20.1988 150.535 20.0868 150.478 19.9468ZM149.764 12.696C149.792 12.626 149.778 12.528 149.749 12.458C149.721 12.388 149.707 12.318 149.735 12.304C149.821 12.262 149.935 12.57 149.892 12.696C149.864 12.752 149.821 12.8079 149.792 12.8079C149.749 12.8219 149.735 12.766 149.764 12.696ZM149.564 12.304C149.564 12.206 149.578 12.178 149.592 12.234C149.607 12.29 149.607 12.374 149.578 12.416C149.578 12.444 149.564 12.402 149.564 12.304ZM149.464 11.1002C149.464 10.8903 149.464 10.6663 149.435 10.5963C149.378 10.3303 149.506 6.73292 149.578 6.60694C149.621 6.53695 149.678 6.32698 149.721 6.13101C149.807 5.64109 149.821 5.6131 149.95 5.45912C150.007 5.37513 150.064 5.26315 150.064 5.20716C150.064 5.15117 150.107 5.08118 150.164 5.03919C150.221 4.99719 150.264 4.91321 150.264 4.82922C150.264 4.64725 150.65 4.17133 150.707 4.26931C150.735 4.3113 150.721 4.42329 150.693 4.52127C150.664 4.61925 150.607 4.77323 150.564 4.87121C150.535 4.9692 150.45 5.13717 150.378 5.24915C150.307 5.34714 150.192 5.6131 150.135 5.80906C150.064 6.01903 149.978 6.187 149.935 6.187C149.849 6.187 149.835 6.27099 149.835 6.90089C149.835 7.20884 149.807 7.39081 149.735 7.4888C149.664 7.58678 149.649 7.65677 149.707 7.74075C149.749 7.82474 149.749 7.86673 149.707 7.86673C149.607 7.86673 149.621 8.21668 149.735 8.27267C149.849 8.34266 149.821 8.55262 149.692 8.55262C149.578 8.55262 149.578 8.83258 149.678 9.26651C149.735 9.49047 149.735 9.58846 149.678 9.67245C149.621 9.75643 149.621 9.85442 149.649 10.0224C149.678 10.1624 149.678 10.3023 149.635 10.3583C149.592 10.4283 149.578 10.6663 149.592 10.9742C149.607 11.2962 149.592 11.4782 149.549 11.4782C149.478 11.4782 149.464 11.3102 149.464 11.1002ZM166.569 6.69092C166.526 6.63493 166.584 6.55094 166.655 6.55094C166.684 6.55094 166.712 6.59294 166.712 6.64893C166.712 6.73292 166.641 6.76091 166.569 6.69092Z" fill="#FFF1F5"/>
<path d="M41.4569 0.293832C42.6001 0.531794 43.2432 1.14769 43.3718 2.12754C43.1717 4.71712 41.1997 6.77479 37.4842 8.28655C35.9837 9.14042 34.4117 9.8823 32.7826 10.5402C31.1535 11.1981 30.096 11.744 29.6102 12.1779C33.1971 13.3117 35.0119 14.9915 35.0548 17.2171C35.1548 18.9528 34.2831 20.8705 32.4397 22.9842C30.5819 25.2378 27.4952 27.4215 23.1795 29.5212C21.5075 30.473 19.1353 31.3129 16.0629 32.0407C13.0476 32.8386 10.6611 33.3145 8.90341 33.4685C7.1314 33.6225 5.2022 33.5245 3.08722 33.1606C1.41525 32.7546 0.4435 31.8868 0.200564 30.571C-0.0566631 29.0452 0.629275 27.5055 2.25838 25.9377C3.88748 24.37 5.83097 23.3901 8.07456 22.9982C10.3182 22.6063 11.933 22.6623 12.9333 23.1382C13.9336 23.6281 14.7482 24.202 15.4055 24.8739C16.0486 25.5458 15.9343 25.8817 15.0483 25.9097C14.1623 25.9237 13.4049 25.8117 12.8047 25.5598C12.2045 25.3078 11.5614 25.1399 10.9041 25.0699C10.2467 24.9999 9.3607 25.0699 8.23176 25.2938C7.10282 25.5178 5.71665 26.2597 4.05897 27.4915C2.64422 28.5273 2.10118 29.5212 2.42986 30.459C2.74425 31.2149 4.43052 31.6488 7.51724 31.7608C10.3182 31.6488 13.1191 31.1589 15.9057 30.305C18.0921 29.7591 20.2214 28.9892 22.3078 27.9954C24.3942 27.0016 26.5949 25.6158 28.9242 23.8801C31.2536 22.1303 32.4968 19.9047 32.6683 17.1891C32.6397 16.0833 31.9109 15.2574 30.4819 14.6835C29.0671 14.1096 28.0096 13.8297 27.3094 13.8297C26.6235 13.8297 25.6374 14.0396 24.3513 14.4596C23.0652 14.8795 22.1363 14.9635 21.5361 14.7395C20.9359 14.5156 20.7644 14.2216 21.0359 13.8857L29.2386 10.0923L32.9827 8.77647L37.2984 6.64881C38.7131 5.89294 39.642 5.31903 40.0707 4.95509C40.4994 4.59114 40.8567 4.2132 41.1282 3.83526C41.3997 3.45733 41.4855 3.03739 41.3854 2.58946C41.2854 2.14154 40.6709 1.87558 39.5134 1.77759C38.3559 1.67961 37.0983 1.84758 35.7265 2.26752C34.3546 2.68745 33.2399 3.10738 32.4111 3.51332C31.5679 3.91925 30.8106 4.70313 30.1103 5.87894C29.3529 6.17289 28.7956 6.0889 28.4384 5.64098C28.0811 5.19305 28.124 4.59114 28.5813 3.84926C33.3828 0.895735 37.6699 -0.294074 41.4569 0.293832Z" fill="#FFF1F5"/>
<path d="M45.3724 20.5347C49.2165 19.9468 51.2314 20.6327 51.4172 22.6204C51.9317 24.3281 49.1307 26.6237 42.9859 29.5073C36.841 32.3908 33.1541 33.8186 31.9251 33.8046C30.6962 33.7906 29.9102 33.5666 29.5529 33.1607C29.1957 32.7408 29.1099 31.9849 29.31 30.8791C29.4958 29.7732 31.2678 27.9255 34.6117 25.3219C37.9414 22.7184 41.5426 21.1226 45.3724 20.5347ZM32.3967 29.4373C30.8962 31.229 31.3249 31.9289 33.6829 31.5369C36.0408 31.145 40.8566 28.8214 48.1304 24.5661L48.6735 24.0761C49.388 22.9983 48.8164 22.3264 46.9872 22.0885C45.158 21.8505 42.6429 22.5644 39.4419 24.2301C36.2551 25.9238 33.9115 27.6596 32.3967 29.4373Z" fill="#FFF1F5"/>
<path d="M66.4938 20.9685C69.1089 19.4988 69.9949 19.5547 69.1375 21.1505C68.1229 22.1023 65.0219 24.342 59.8773 27.8694C59.2914 28.9752 58.9913 29.8151 58.9913 30.403C58.9913 30.9909 59.7773 30.9909 61.335 30.403C62.9069 29.8151 64.9076 28.5973 67.3655 26.7496C67.88 26.8196 68.0943 27.1975 67.98 27.9114C67.8657 28.6113 66.751 29.4931 64.636 30.557C62.5211 31.6208 60.8062 32.2227 59.4915 32.3627C58.1911 32.5027 57.4766 32.3767 57.3622 31.9847C57.2479 31.5928 57.3479 30.585 57.6623 28.9752L48.8309 33.3985C47.8734 33.5945 47.4447 33.2305 47.5019 32.3067C48.7451 29.0732 49.6311 27.4075 50.1456 27.3235C51.1602 27.2535 51.4603 27.8134 51.0316 28.9752C49.4596 30.9909 49.4596 31.5368 51.0316 30.627C57.5623 27.5475 62.7068 24.342 66.4938 20.9685Z" fill="#FFF1F5"/>
<path d="M83.356 20.5347C87.2002 19.9468 89.2151 20.6327 89.4009 22.6204C89.9153 24.3281 87.1144 26.6237 80.9695 29.5073C74.8247 32.3908 71.1378 33.8186 69.9088 33.8046C68.6798 33.7906 67.8938 33.5666 67.5366 33.1607C67.1793 32.7408 67.0936 31.9849 67.2936 30.8791C67.4794 29.7732 69.2514 27.9255 72.5954 25.3219C75.925 22.7184 79.5119 21.1226 83.356 20.5347ZM70.3804 29.4373C68.8799 31.229 69.3086 31.9289 71.6665 31.5369C74.0244 31.145 78.8403 28.8214 86.1141 24.5661L86.6571 24.0761C87.3716 22.9983 86.8 22.3264 84.9709 22.0885C83.1417 21.8505 80.6266 22.5644 77.4255 24.2301C74.2245 25.9238 71.8809 27.6596 70.3804 29.4373Z" fill="#FFF1F5"/>
<path d="M88.5153 20.6608L113.481 21.1507C114.152 21.6126 114.095 22.0886 113.295 22.5785C112.495 23.0684 109.565 23.2504 104.492 23.1104L100.162 23.0124C99.0616 23.0824 96.1749 22.7885 91.5162 22.1446C92.8453 23.5583 93.5169 25.826 93.5169 28.9895C97.3039 26.0639 99.9619 24.5942 101.491 24.5942C102.12 24.6502 102.291 24.9721 102.005 25.56L91.0304 33.3708C90.3444 33.3568 90.0015 33.0348 90.0158 32.4049L91.5162 30.4452C91.5162 25.882 90.1872 22.7885 87.5149 21.1367C87.4721 20.7168 87.8007 20.5628 88.5153 20.6608Z" fill="#FFF1F5"/>
<path d="M121.154 20.5347C124.998 19.9468 127.013 20.6327 127.199 22.6204C127.714 24.3281 124.913 26.6237 118.768 29.5073C112.623 32.3908 108.936 33.8186 107.707 33.8046C106.478 33.7906 105.692 33.5666 105.335 33.1607C104.978 32.7408 104.892 31.9849 105.092 30.8791C105.278 29.7732 107.05 27.9255 110.394 25.3219C113.723 22.7184 117.325 21.1226 121.154 20.5347ZM108.179 29.4373C106.678 31.229 107.107 31.9289 109.465 31.5369C111.823 31.145 116.639 28.8214 123.912 24.5661L124.455 24.0761C125.17 22.9983 124.598 22.3264 122.769 22.0885C120.94 21.8505 118.425 22.5644 115.224 24.2301C112.037 25.9238 109.693 27.6596 108.179 29.4373Z" fill="#FFF1F5"/>
<path d="M144.848 20.6606C146.091 20.2686 146.62 20.7445 146.434 22.0883C140.861 26.2737 138.174 28.6253 138.36 29.1292C137.86 30.0391 138.103 30.599 139.089 30.8089C140.918 30.571 143.119 29.8431 145.662 28.6113C148.22 27.3795 149.378 27.0855 149.149 27.7294C148.549 28.9892 146.434 30.319 142.833 31.7328C139.232 33.1466 137.131 33.5105 136.559 32.8386C135.988 32.1667 135.859 30.697 136.173 28.4433L126.956 32.6566C125.813 32.9646 124.855 32.9926 124.055 32.7406C123.255 32.4887 122.983 31.7608 123.183 30.543C126.77 25.1818 129.3 22.2563 130.786 21.7664C132.272 21.2625 132.629 21.5984 131.843 22.7742C127.242 27.3795 125.084 30.0251 125.37 30.683C125.656 31.3409 128.014 30.515 132.444 28.2054C136.902 25.8817 141.018 23.3761 144.848 20.6606ZM148.878 12.1919H149.263L155.808 13.0878L154.822 13.9836L150.178 13.6477H147.606L145.791 13.8996L145.376 13.8297L144.205 13.8576C140.018 14.2356 138.003 15.0055 138.188 16.1953V17.1891L137.331 17.2871C136.331 17.1191 135.945 16.4332 136.188 15.2574C137.803 12.9058 142.032 11.884 148.878 12.1919Z" fill="#FFF1F5"/>
<path d="M29.9104 47.5783L27.924 45.3526H27.0237V47.5783H26.6379V45.3526H25.7519L23.7655 47.5783H23.3225L25.4375 45.1706L23.594 42.875H24.0227L25.7519 45.0027H26.6379V42.875H27.0237V45.0027H27.9097L29.6246 42.875H30.0676L28.2241 45.1706L30.3248 47.5783H29.9104Z" fill="#FFF1F5"/>
<path d="M36.041 42.7771C37.8273 42.7771 38.4275 44.2609 38.1989 45.4227H34.0689C34.1261 46.7805 35.2122 47.3404 36.3554 47.3404C36.927 47.3404 37.5129 47.2004 37.9131 46.9624V47.3404C37.4986 47.5643 36.8984 47.6903 36.2982 47.6903C34.9264 47.6903 33.6831 46.9484 33.6831 45.2267C33.6831 43.631 34.8549 42.7771 36.041 42.7771ZM36.0553 43.127C35.0407 43.127 34.0975 43.8129 34.0689 45.0867H37.8702C37.9559 44.2749 37.5129 43.127 36.0553 43.127Z" fill="#FFF1F5"/>
<path d="M42.4717 47.5783V42.875H42.8575V45.0447H46.2443V42.875H46.6302V47.5783H46.2443V45.4086H42.8575V47.5783H42.4717Z" fill="#FFF1F5"/>
<path d="M53.4896 42.7771C53.9755 42.7771 54.5042 42.8891 54.9187 43.155V43.519C54.5328 43.253 54.0041 43.127 53.5325 43.127C52.4321 43.127 51.2889 43.7569 51.2889 45.2687C51.2889 46.6965 52.3464 47.3404 53.4468 47.3404C53.9898 47.3404 54.5328 47.2144 54.9758 46.9624V47.3404C54.5043 47.5923 53.9612 47.6903 53.4039 47.6903C52.1606 47.6903 50.9173 46.9344 50.9173 45.2687C50.9031 43.533 52.2464 42.7771 53.4896 42.7771Z" fill="#FFF1F5"/>
<path d="M59.2197 47.5783V42.875H59.6056V44.9887H60.8345L62.6351 42.875H63.0924L61.1346 45.1706L63.3496 47.5783H62.8923L60.806 45.3386H59.5913V47.5783H59.2197Z" fill="#FFF1F5"/>
<path d="M67.2368 47.5783V42.875H67.6227V46.9904L71.1238 42.875H71.481V47.5783H71.0952V43.4629L67.5798 47.5783H67.2368Z" fill="#FFF1F5"/>
<path d="M76.0969 47.5783V42.875H76.4828V46.9904L79.9839 42.875H80.3412V47.5783H79.9553V43.4629L76.4399 47.5783H76.0969ZM78.1976 42.0912C77.726 42.0912 77.2973 41.9932 76.9115 41.6852V41.3213C77.3259 41.6432 77.726 41.7552 78.1976 41.7552C78.6692 41.7552 79.055 41.6432 79.4837 41.3213V41.6852C79.0979 41.9932 78.6692 42.0912 78.1976 42.0912Z" fill="#FFF1F5"/>
<path d="M96.4322 47.5783L94.4459 45.3526H93.5456V47.5783H93.174V45.3526H92.288L90.3017 47.5783H89.8586L91.9736 45.1706L90.1302 42.875H90.5589L92.288 45.0027H93.174V42.875H93.5599V45.0027H94.4459L96.1607 42.875H96.6037L94.7602 45.1706L96.8609 47.5783H96.4322Z" fill="#FFF1F5"/>
<path d="M104.664 42.875H105.064L102.563 48.4041C102.077 49.4679 101.577 49.8459 100.92 49.8459C100.748 49.8459 100.591 49.8319 100.419 49.7759V49.4399C100.577 49.4819 100.734 49.5099 100.877 49.5099C101.463 49.5099 101.863 49.118 102.249 48.2501L102.534 47.5922L100.105 42.875H100.519L102.72 47.1863L104.664 42.875Z" fill="#FFF1F5"/>
<path d="M111.566 42.7771C112.923 42.7771 113.952 43.7569 113.952 45.2407C113.952 46.7245 112.923 47.7043 111.566 47.7043C110.58 47.7043 109.836 47.1724 109.465 46.5145V49.748H109.079V42.8891H109.436V44.0089C109.836 43.309 110.565 42.7771 111.566 42.7771ZM111.523 43.127C110.537 43.127 109.751 43.7709 109.465 44.5548V45.9266C109.751 46.7105 110.537 47.3544 111.523 47.3544C112.68 47.3544 113.581 46.5705 113.581 45.2407C113.566 43.9249 112.68 43.127 111.523 43.127Z" fill="#FFF1F5"/>
<path d="M118.239 47.5783V42.875H118.625V45.0447H122.012V42.875H122.398V47.5783H122.012V45.4086H118.611V47.5783H118.239Z" fill="#FFF1F5"/>
<path d="M131.172 47.2842C131.286 47.2842 131.429 47.2562 131.544 47.2142V47.5222C131.386 47.5642 131.229 47.6062 131.072 47.6062C130.686 47.6062 130.315 47.4102 130.315 46.8363V46.7103C129.829 47.3402 129.086 47.6901 128.228 47.6901C127.399 47.6901 126.571 47.2562 126.571 46.3184C126.571 45.1985 127.628 44.8206 128.657 44.8206C129.229 44.8206 129.8 44.9186 130.3 45.0726V44.6386C130.3 43.7288 129.729 43.1129 128.643 43.1129C127.928 43.1129 127.328 43.2669 126.928 43.4208V43.0569C127.299 42.9309 127.914 42.7629 128.671 42.7629C129.943 42.7629 130.672 43.4768 130.672 44.6806V46.8223C130.7 47.1722 130.915 47.2842 131.172 47.2842ZM128.314 47.3542C129.114 47.3542 129.9 46.9763 130.329 46.2484V45.3945C129.857 45.2545 129.286 45.1426 128.728 45.1426C127.871 45.1426 126.985 45.4365 126.985 46.3044C126.971 47.0322 127.628 47.3542 128.314 47.3542Z" fill="#FFF1F5"/>
<path d="M135.159 47.6482C135.016 47.6482 134.873 47.6342 134.702 47.5642V47.2563C134.816 47.3123 134.945 47.3123 135.059 47.3123C135.959 47.3123 136.331 45.6885 136.417 42.875H139.675V47.5782H139.289V43.2249H136.774C136.674 45.9685 136.274 47.6482 135.159 47.6482Z" fill="#FFF1F5"/>
</g>
<defs>
<clipPath id="clip0">
<rect x="0.000488281" width="175" height="50" fill="white"/>
</clipPath>
</defs>
</svg>
