<svg width="28" height="28" viewBox="0 0 28 28" fill="none" xmlns="http://www.w3.org/2000/svg">
<path d="M17 6H11C8.239 6 6 8.239 6 11V17C6 19.761 8.239 22 11 22H17C19.761 22 22 19.761 22 17V11C22 8.239 19.761 6 17 6ZM20.5 17C20.5 18.93 18.93 20.5 17 20.5H11C9.07 20.5 7.5 18.93 7.5 17V11C7.5 9.07 9.07 7.5 11 7.5H17C18.93 7.5 20.5 9.07 20.5 11V17Z" fill="#3D3D3D"/>
<path d="M14 10C11.791 10 10 11.791 10 14C10 16.209 11.791 18 14 18C16.209 18 18 16.209 18 14C18 11.791 16.209 10 14 10ZM14 16.5C12.622 16.5 11.5 15.378 11.5 14C11.5 12.621 12.622 11.5 14 11.5C15.378 11.5 16.5 12.621 16.5 14C16.5 15.378 15.378 16.5 14 16.5Z" fill="#3D3D3D"/>
<path d="M18.3 10.233C18.5944 10.233 18.833 9.99436 18.833 9.69999C18.833 9.40562 18.5944 9.16699 18.3 9.16699C18.0057 9.16699 17.767 9.40562 17.767 9.69999C17.767 9.99436 18.0057 10.233 18.3 10.233Z" fill="#3D3D3D"/>
<circle cx="14" cy="14" r="13" stroke="#3D3D3D" stroke-width="2"/>
</svg>
