<svg width="28" height="28" viewBox="0 0 28 28" fill="none" xmlns="http://www.w3.org/2000/svg">
<g clip-path="url(#clip0)">
<path d="M21.8574 17.5781C21.8144 17.5061 21.5484 16.928 20.2683 15.7399C18.9282 14.4959 19.1082 14.6979 20.7223 12.5467C21.7054 11.2366 22.0984 10.4366 21.9754 10.0945C21.8584 9.7685 21.1353 9.85451 21.1353 9.85451L18.7312 9.86851C18.7312 9.86851 18.5532 9.84451 18.4201 9.92352C18.2911 10.0015 18.2081 10.1815 18.2081 10.1815C18.2081 10.1815 17.8271 11.1956 17.3191 12.0577C16.248 13.8768 15.819 13.9728 15.6439 13.8598C15.2369 13.5968 15.3389 12.8017 15.3389 12.2377C15.3389 10.4746 15.6059 9.7395 14.8179 9.54949C14.5559 9.48648 14.3638 9.44448 13.6948 9.43748C12.8367 9.42848 12.1097 9.44048 11.6986 9.64149C11.4246 9.7755 11.2136 10.0745 11.3426 10.0915C11.5016 10.1125 11.8617 10.1885 12.0527 10.4486C12.2997 10.7836 12.2907 11.5376 12.2907 11.5376C12.2907 11.5376 12.4327 13.6128 11.9597 13.8708C11.6346 14.0478 11.1896 13.6868 10.2345 12.0357C9.7455 11.1906 9.37547 10.2555 9.37547 10.2555C9.37547 10.2555 9.30447 10.0815 9.17746 9.98852C9.02345 9.87551 8.80743 9.83951 8.80743 9.83951L6.52126 9.85351C6.52126 9.85351 6.17824 9.86351 6.05223 10.0125C5.94022 10.1455 6.04323 10.4196 6.04323 10.4196C6.04323 10.4196 7.83336 14.6069 9.85951 16.718C11.7186 18.6532 13.8288 18.5262 13.8288 18.5262H14.7849C14.7849 18.5262 15.0739 18.4942 15.2209 18.3351C15.3569 18.1891 15.3519 17.9151 15.3519 17.9151C15.3519 17.9151 15.3329 16.632 15.929 16.443C16.516 16.257 17.2701 17.6831 18.0691 18.2321C18.6732 18.6472 19.1322 18.5562 19.1322 18.5562L21.2694 18.5262C21.2694 18.5262 22.3874 18.4572 21.8574 17.5781Z" fill="#3D3D3D"/>
</g>
<circle cx="14" cy="14" r="13" stroke="#3D3D3D" stroke-width="2"/>
<defs>
<clipPath id="clip0">
<rect x="6" y="6" width="16" height="16" fill="white"/>
</clipPath>
</defs>
</svg>
